<?xml version="1.0" encoding="UTF-8"?>
<!-- Adapted from OrcaSlicer toolbar_brimears.svg to match preFlight style -->
<svg id="a" xmlns="http://www.w3.org/2000/svg" width="128" height="128" viewBox="0 0 128 128">
<path d="M91.2,96H33.6c-2.656,0-4.8-2.144-4.8-4.8V33.6c0-2.656,2.144-4.8,4.8-4.8h57.6c2.656,0,4.8,2.144,4.8,4.8v57.6c0,2.656-2.144,4.8-4.8,4.8ZM33.6,32c-.896,0-1.6.704-1.6,1.6v57.6c0,.896.704,1.6,1.6,1.6h57.6c.896,0,1.6-.704,1.6-1.6V33.6c0-.896-.704-1.6-1.6-1.6H33.6Z" style="fill:#FFFFFF;"/>
<path d="M50.912,28.8c-1.536-9.088-9.408-16-18.912-16-10.592,0-19.2,8.608-19.2,19.2,0,9.504,6.912,17.376,16,18.912v-2.976c-1.888-.384-3.648-1.088-5.216-2.048l5.216-5.216v-4.512l-7.776,7.776c-2.048-1.888-3.584-4.288-4.48-7.008l20.352-20.352c2.72.864,5.12,2.4,7.008,4.48l-7.776,7.776h4.512l5.216-5.216c.96,1.568,1.664,3.328,2.048,5.216h2.976ZM15.84,33.088c0-.352-.096-.704-.096-1.088,0-8.96,7.296-16.256,16.256-16.256.384,0,.736.064,1.088.096l-17.248,17.248Z" style="fill:#EAA032;"/>
<path d="M76.576,28.8c.384-1.888,1.088-3.648,2.048-5.216l5.216,5.216h4.512s-7.776-7.776-7.776-7.776c1.888-2.048,4.288-3.584,7.008-4.48l20.352,20.352c-.864,2.72-2.4,5.12-4.48,7.008l-7.776-7.776v4.512s5.216,5.216,5.216,5.216c-1.568.96-3.328,1.664-5.216,2.048v2.976c9.088-1.536,16-9.408,16-18.912,0-10.592-8.608-19.2-19.2-19.2-9.504,0-17.376,6.912-18.912,16h2.976ZM91.424,15.84c.352,0,.704-.096,1.088-.096,8.96,0,16.256,7.296,16.256,16.256,0,.384-.064.736-.096,1.088l-17.248-17.248Z" style="fill:#EAA032;"/>
<path d="M47.936,95.712c-.384,1.888-1.088,3.648-2.048,5.216l-5.216-5.216h-4.512l7.776,7.776c-1.888,2.048-4.288,3.584-7.008,4.48l-20.352-20.352c.864-2.72,2.4-5.12,4.48-7.008l7.776,7.776v-4.512l-5.216-5.216c1.568-.96,3.328-1.664,5.216-2.048v-2.976c-9.088,1.536-16,9.408-16,18.912,0,10.592,8.608,19.2,19.2,19.2,9.504,0,17.376-6.912,18.912-16h-2.976ZM33.088,108.672c-.352,0-.704.096-1.088.096-8.96,0-16.256-7.296-16.256-16.256,0-.384.064-.736.096-1.088l17.248,17.248Z" style="fill:#EAA032;"/>
<path d="M73.6,95.712c1.536,9.088,9.408,16,18.912,16,10.592,0,19.2-8.608,19.2-19.2,0-9.504-6.912-17.376-16-18.912v2.976c1.888.384,3.648,1.088,5.216,2.048l-5.216,5.216v4.512s7.776-7.776,7.776-7.776c2.048,1.888,3.584,4.288,4.48,7.008l-20.352,20.352c-2.72-.864-5.12-2.4-7.008-4.48l7.776-7.776h-4.512s-5.216,5.216-5.216,5.216c-.96-1.568-1.664-3.328-2.048-5.216h-2.976ZM108.672,91.424c0,.352.096.704.096,1.088,0,8.96-7.296,16.256-16.256,16.256-.384,0-.736-.064-1.088-.096l17.248-17.248Z" style="fill:#EAA032;"/>
</svg>
