<?xml version="1.0" encoding="UTF-8"?>
<svg id="a" data-name="Layer 1" xmlns="http://www.w3.org/2000/svg" width="138.49" height="138.5" viewBox="0 0 138.49 138.5">
  <g id="b" data-name="Generative Object">
    <path d="M64.76.12c63.77-3.6,98.97,74.08,52.4,118.9C71.75,162.72-2.9,127.67.09,65.43,1.72,31.46,30.77,2.04,64.76.12Z" fill="#fff"/>
    <g>
      <path d="M65.23,16.74c22.26-1.42,39.78,8.72,44.09,31.27.15.79.05,3.05.32,3.64.21.47,4.47,3.28,4.59,3.64-.26,4.37.35,9.13,0,13.46-.05.66-.24,2.64-.47,3.17-.48,1.09-5.18,3.22-6.49,3.48.01,4.14-1.49,7.6-3.8,10.92l.08.4c1.35.51,4.23,2.45,4.51,3.88.13.65-.17,2.02,0,2.53.14.43,6.42,4.52,6.97,5.7-1.91,7.25-8.24,12.66-14.64,16.07-16.55,8.81-40.21,9.24-57.47,2.22-8.17-3.33-17.17-9.46-19.39-18.44.61-1.09,6.82-5.12,6.97-5.54.13-.38-.24-1.42-.16-2.06.24-1.87,3.14-3.71,4.75-4.43.12-.28-2.71-4.49-3.01-5.38-.59-1.72-.47-5.01-.95-6.17-.05-.12-.45.35-.87.24-.27-.07-4.69-2.36-4.91-2.53-.26-.2-.37-.45-.55-.71-.98-5.5-.25-11.2-.47-16.78.18-.6,4.35-3.16,4.59-3.8.18-.47.15-3.12.32-3.96,3.71-18.68,17.02-29.58,36.02-30.79Z" fill="#f1efef"/>
      <path d="M66.03,17.85c21.98-1.2,41.58,10.86,42.35,34.28l4.59,3.64c-.29,4.37.53,9.85,0,14.09-.02.17-.28,1.51-.32,1.58-.11.23-4.1,2.58-4.35,2.61-.72.1-1.78-1.09-1.98-.55-.07,5.13-1.5,9.49-4.75,13.46,0,.34,5.04,2.12,5.38,4.12.13.75-.43,2.06-.32,2.53.11.43,6.75,4.52,6.97,5.54.3,1.46-3.35,6.58-4.43,7.76-16.61,18.11-58.86,17.91-77.18,2.45-1.79-1.51-7.71-8.09-7.05-10.37.27-.92,6.85-4.96,6.97-5.38s-.49-1.84-.32-2.69c.32-1.59,4.03-3.18,5.38-3.8-3.26-4.17-4.77-8.45-4.91-13.77-.33-.28-1.12.78-1.82.71-.23-.02-3.8-2.06-3.96-2.22-.43-.44-.63-1.09-.71-1.66-.61-4.15.27-9.94-.16-14.25.58-.86,4.36-3.18,4.59-3.8.29-.76.25-3.78.47-4.91,3.66-18.19,17.24-28.37,35.54-29.37Z"/>
      <g>
        <g>
          <path d="M34.2,89.73c-.2,5.37,4.92,9.52,9.18,11.87,14.34,7.91,39.42,7.93,53.35-.95,3.65-2.33,7.89-6.19,7.6-10.92,3.72,2.28-.98,7.43-3.17,9.34-14.57,12.71-49,12.74-63.64.16-2.12-1.82-7.19-7.32-3.32-9.5Z" fill="#127ec3"/>
          <path d="M88.59,106.98c.27.61.56,1.17,0,1.74-9.87,2.9-28.61,5.03-38.15,0-.24-.12-.91-.29-.95-.4-.06-.14.29-1.17.47-1.35,12.37,3.86,26.26,3.83,38.63,0Z" fill="#989899"/>
          <path d="M33.81,97.01l-1.11.63c-1.32-1.45-.75.2-.16,1.11-.47-.12-.63.39-.79.71-.91,1.78-1.63,3.77-2.37,5.62-.74-.92-3.4-4.55-3.17-5.62.14-.65,5.22-4.1,6.1-4.67.28.04,1.23,1.9,1.5,2.22Z" fill="#d0d1cf"/>
          <path d="M111.54,101.44c-.82-1.4-3.96-5.62-5.38-5.94-.28-.06-.32.34-.63.24.19-.25.46-.93.71-.95.85.54,5.98,4.11,6.1,4.67.1.48-.59,1.53-.79,1.98Z" fill="#d0d1cf"/>
          <g>
            <path d="M37.45,88.46s-.06.28.08.32c.4.11.38-.17.4-.16.96.53,3.81,4.5,5.46,5.7,11.59,8.42,41.84,8.46,52.88-.95.92-.78,4.06-4.77,4.35-4.91.03-.01.32.02.63,0,.3-.02.31.13.47.16,4,2.08-.61,7.4-2.69,9.34-4.62,4.31-12.98,6.93-19.16,7.92-6.25.42-12.51.79-18.76,0-1.89-.24-3.9-1.08-5.78-.79-5.04-1.14-11.69-3.45-15.52-6.97-1.74-1.6-6.31-6.76-3.88-9.02.28-.26,1.18-.16,1.19-.63.1,0,.21,0,.32,0Z" fill="#127ec3"/>
            <g>
              <path d="M79.88,105.88c-8.07,1.28-16.58,1.01-24.54-.79,1.87-.29,3.89.55,5.78.79,6.25.79,12.51.42,18.76,0Z" fill="#aabbb9"/>
              <path d="M37.13,88.46c0,.47-.91.38-1.19.63-2.43,2.26,2.13,7.42,3.88,9.02-2.53-1.06-8.03-9.45-2.69-9.66Z" fill="#d4e1d8"/>
              <path d="M99.04,97.96c2.08-1.94,6.69-7.26,2.69-9.34,4.77.79-.29,8.09-2.69,9.34Z" fill="#dbe8f2"/>
              <path d="M37.92,88.62s0,.27-.4.16c-.14-.04-.06-.32-.08-.32l.47.16Z" fill="#f1efef"/>
              <path d="M101.25,88.46c-.32.02-.6-.01-.63,0h.63Z" fill="#b7d8ee"/>
              <path d="M38.8,93.05c2.68,3.25,6.98,5.42,10.92,6.81,13.81,4.88,32.65,4,45.6-3.01.59-.32,1.65-1.44,2.3-1.19-13.68,8.64-33.64,9.87-48.68,4.2-3.45-1.3-8.24-3.62-10.13-6.81Z"/>
              <path d="M61.04,104.61c.01.25.29.15.47.16.37,0,.88-.16.95.4-7.22-.5-15.81-2.86-21.61-7.36-1.94-1.5-4.9-4.32-4.59-6.97,1.21,3.91,5.2,7.08,8.71,9.02,3.86,2.14,11.69,4.67,16.07,4.75Z" fill="#f0d332"/>
              <path d="M86.13,99.07c.13.42-1.02.71-1.27.79-9.91,3.15-22.02,2.81-31.9-.24,10.89,2.45,22.41,2.76,33.17-.55Z"/>
              <path d="M61.51,104.77c-.18,0-.46.09-.47-.16.18,0,.46-.09.47.16Z" fill="#789db4"/>
            </g>
          </g>
          <g>
            <path d="M111.54,101.44c-5.25,11.77-25.84,17.49-37.6,18.21-14.07.85-35.25-3.04-44.57-14.57.75-1.85,1.47-3.84,2.37-5.62.16-.32.32-.83.79-.71.47.72,2.08,2.41,2.77,3.01.6.53,3.36,2.1,3.4,2.3.08.33-1.53,3.15-1.03,3.56.71.59,1.32-3.55,1.82-3.72-1.22-1.14-2.78-1.81-4.04-2.93s-1.8-2.26-2.77-3.32l1.11-.63c.95,1.11,2.12,2.39,3.25,3.32.96.8,6,3.53,6.1,3.88.15.51-1.52,2.32-.55,2.77.52-.27.95-2.45,1.27-2.53s5.1,2.22,6.1,2.53c-.18.18-.53,1.2-.47,1.35.04.1.71.27.95.4l-6.1-1.9c-.31.46-1.99,5.07-1.42,5.22.96-.37,1.2-4.29,1.9-4.43,14.67,6.09,30.21,6.07,45.28,1.42.62-.19,3.17-1.42,3.48-1.42.98-.02,1.25,4.69,2.06,4.43.54-.17-1.06-4.6-1.42-5.22-1.88.63-3.71,1.34-5.62,1.9.56-.57.27-1.13,0-1.74.87-.27,5.79-2.49,6.1-2.37.27.1.92,2.37,1.27,2.37.92-.43-.72-2.24-.55-2.77,4.36-2.19,7.19-4.7,10.13-8.47.31.1.36-.3.63-.24,1.42.31,4.56,4.54,5.38,5.94Z" fill="#bab9bb"/>
            <path d="M50.43,108.73c9.54,5.03,28.28,2.9,38.15,0,1.91-.56,3.74-1.27,5.62-1.9.36.62,1.97,5.06,1.42,5.22-.81.25-1.08-4.45-2.06-4.43-.31,0-2.87,1.23-3.48,1.42-15.07,4.65-30.61,4.67-45.28-1.42-.7.14-.94,4.07-1.9,4.43-.57-.15,1.12-4.76,1.42-5.22l6.1,1.9Z"/>
            <path d="M32.7,97.64c.97,1.07,1.58,2.26,2.77,3.32,1.26,1.12,2.81,1.79,4.04,2.93-.5.17-1.11,4.31-1.82,3.72-.5-.42,1.11-3.23,1.03-3.56-.05-.2-2.8-1.77-3.4-2.3-.69-.6-2.3-2.28-2.77-3.01-.59-.91-1.16-2.56.16-1.11Z"/>
            <path d="M106.56,97.01c.42-.05.4.02.4.4-.01.55-3.4,4.11-4.04,4.67-.41.36-2.88,1.81-2.93,1.98-.17.55,1.49,3.61.71,3.72-.49-.29-1.59-3.98-1.5-4.2.08-.2,2.94-1.77,3.56-2.3.83-.71,3.52-4.24,3.8-4.27Z"/>
            <g>
              <path d="M46.55,109.83c2.88-.36,2.33,4.95-.47,3.8-1.62-.67-1.16-3.6.47-3.8Z"/>
              <path d="M46.39,110.47c2.02-.55,2.02,3.24,0,2.69-.96-.26-.96-2.43,0-2.69Z" fill="#585861"/>
            </g>
            <g>
              <path d="M91.52,109.83c3.09-.35,2.14,5.37-.63,3.64-1.45-.9-.9-3.47.63-3.64Z"/>
              <path d="M91.52,110.47c1.64-.28,1.88,2.42.63,2.69-1.73.38-2.04-2.45-.63-2.69Z" fill="#585861"/>
            </g>
            <g>
              <path d="M98.16,106.67c2.47-.54,2.93,3.35.95,3.8-2.62.6-2.92-3.37-.95-3.8Z"/>
              <path d="M98.16,107.3c1.9-.59,2.23,2.48.63,2.69s-1.67-2.37-.63-2.69Z" fill="#585861"/>
            </g>
            <g>
              <path d="M39.43,106.67c2.84-.63,3.03,4.51,0,3.8-1.72-.4-1.61-3.44,0-3.8Z"/>
              <path d="M39.43,107.3c2.35-.73,2.03,3.71-.16,2.53-.86-.46-.64-2.29.16-2.53Z" fill="#585861"/>
            </g>
          </g>
        </g>
        <g>
          <path d="M105.37,44.92c-.17,1.38.59,3.06.79,4.67.09.71.48,3.3.47,3.48-.01.38-.92,1.68-.63,2.3-1.29,4.3-.26,12.69-.63,17.65-.78,10.53-7.04,19.72-17.1,23.19,2.41-3.04,4.66-6.3,6.02-9.97,1.4-.62,4.66-2.23,5.54-3.4,3.82-5.11,4.53-24.23,4.12-30.71-.28-4.45-.12-4.75-3.96-6.89-1.81-7.57-7.91-15.95-14.64-19.95-2.35-1.4-4.34-2.03-6.89-2.85-3.67-1.18-7.39-2.28-11.32-2.06-.1-.35.29-.29.47-.32,10.49-1.52,23.58,3.93,30.48,11.79,3.63,4.14,5.16,8.13,7.28,13.06Z" fill="#2d97d4"/>
          <path d="M88.27,96.22c-9.13,3.15-17.79,4.12-27.39,2.69l4.27-7.92c8.77.54,21.08-1.16,29.13-4.75-1.36,3.68-3.61,6.93-6.02,9.97Z" fill="#989899"/>
          <path d="M106.63,46.82c1.41,3.96.38,5.17-.63,8.55-.29-.61.62-1.92.63-2.3,0-.18-.39-2.78-.47-3.48-.2-1.61-.97-3.3-.79-4.67.18.42,1.03,1.22,1.27,1.9Z" fill="#36bbed"/>
          <path d="M99.99,45.24c-7.56-4.21-20.35-6.33-28.97-6.49l7.44-16.31c2.55.82,4.53,1.45,6.89,2.85,6.73,4,12.83,12.38,14.64,19.95Z" fill="#9ca3af"/>
          <g>
            <path d="M106.63,46.82c-.24-.68-1.09-1.48-1.27-1.9-2.12-4.93-3.65-8.92-7.28-13.06-6.9-7.86-19.99-13.32-30.48-11.79-.18.03-.58-.03-.47.32,3.93-.23,7.65.88,11.32,2.06l-7.44,16.31c-8.53-.15-28.34,2.27-34.91,7.92-1.17,1.01-1.13,1.68-1.35,3.25-.9,6.49-.03,28.23,4.12,33.25,3.5,4.23,20.77,7.5,26.28,7.84l-4.27,7.92c-11.85-1.77-18.98-4.73-25.01-15.44-5.08-9.01-1.36-17.77-2.85-26.76-.18-1.07-1.74-3.26-1.9-4.27-.28-1.73.77-6.85,1.27-8.71,9.22-34.47,68.69-32.88,74.25,3.09Z" fill="#d0d1cf"/>
            <path d="M41.65,30.83c-2.33,3.51-4.05,7.36-4.99,11.48-.14.59-.02,2.13-.16,2.53-.07.19-2.46,1.76-2.61,1.66.76-5.84,3.64-11.47,7.76-15.67Z" fill="#0270b3"/>
            <path d="M38.16,84.03c4.54.52,4.86,3.62,7.05,6.57.99,1.33,2.22,2.42,3.32,3.64-4.02-2.66-8.02-5.91-10.37-10.21Z" fill="#0270b3"/>
          </g>
          <g>
            <path d="M108.14,53.32l3.88,3.09c-.3,4,.4,8.57,0,12.51-.04.44-.16,1.57-.32,1.9-.14.3-3.42,2.15-3.72,2.14-.23,0-1.14-.81-1.5-.87.35-4.49-.47-9.69,0-14.09.18-1.68.94-3.15,1.66-4.67Z" fill="#75777f"/>
            <g>
              <path d="M107.35,67.88c.12-.06,2.58-.08,2.69,0,1.7,1.21-4.76.96-2.69,0Z"/>
              <path d="M107.19,69.46c.12-.08,2.73-.08,2.85,0,1.67,1.18-4.42.99-2.85,0Z"/>
              <path d="M107.35,61.86c.28-.13,3.5-.18,2.77.71-.26.32-4.52.1-2.77-.71Z"/>
              <path d="M107.19,63.45c.12-.08,2.73-.08,2.85,0,1.71,1.06-4.54,1.07-2.85,0Z"/>
              <path d="M107.19,60.44c.12-.08,2.73-.08,2.85,0,1.71,1.06-4.54,1.07-2.85,0Z"/>
              <path d="M107.35,58.86c.28-.13,3.5-.18,2.77.71-.26.32-4.52.1-2.77-.71Z"/>
              <path d="M107.19,57.43c.12-.08,2.73-.08,2.85,0,1.71,1.06-4.54,1.07-2.85,0Z"/>
              <path d="M107.19,66.46c.12-.08,2.73-.08,2.85,0,1.71,1.06-4.54,1.07-2.85,0Z"/>
              <path d="M107.35,64.87c.28-.13,3.5-.18,2.77.71-.26.32-4.52.1-2.77-.71Z"/>
            </g>
          </g>
          <g>
            <path d="M30.25,53.32l1.66,3.4v15.36c-.34.06-1.3.87-1.5.87s-3.36-1.74-3.48-1.9c-1.04-1.33-.03-12.27-.4-14.64l3.72-3.09Z" fill="#7f7f7f"/>
            <g>
              <path d="M28.5,63.29c.57.04,3.14-.26,2.77.71-.07.18-4.07.7-2.77-.71Z"/>
              <path d="M28.98,66.3c.45-.07,2.55.06,2.3.71-.36.95-5.05-.3-2.3-.71Z"/>
              <path d="M28.35,60.44c.12-.08,2.73-.08,2.85,0,1.71,1.06-4.54,1.07-2.85,0Z"/>
              <path d="M28.5,69.31c.15-.05,3.04.05,2.77.71-.19.47-2.3.14-2.77.24-.35-.17-.32-.84,0-.95Z"/>
              <path d="M28.5,64.87c.29-.12,3.08-.21,2.77.55-.27.67-4.41.12-2.77-.55Z"/>
              <path d="M28.5,61.86c.29-.12,3.08-.21,2.77.55-.27.67-4.41.12-2.77-.55Z"/>
              <path d="M28.5,58.86c.29-.12,3.08-.21,2.77.55-.27.67-4.41.12-2.77-.55Z"/>
              <path d="M28.5,67.88c.29-.12,3.08-.21,2.77.55-.27.67-4.41.12-2.77-.55Z"/>
              <path d="M28.5,57.27c.47.32,3.45-.16,2.77.71-.17.22-4.01.58-2.77-.71Z"/>
            </g>
          </g>
          <g>
            <path d="M71.01,38.75c8.62.16,21.42,2.28,28.97,6.49,3.84,2.14,3.68,2.43,3.96,6.89.41,6.49-.29,25.6-4.12,30.71-.88,1.17-4.15,2.78-5.54,3.4-8.05,3.59-20.36,5.29-29.13,4.75-5.51-.34-22.78-3.61-26.28-7.84-4.15-5.01-5.01-26.76-4.12-33.25.22-1.57.17-2.24,1.35-3.25,6.57-5.65,26.38-8.07,34.91-7.92Z"/>
            <path d="M71.49,39.38c-.05.62-.64.07-1.11.55-.07.07-.72,1.72-.55,1.82l1.66.32c-11.65-.31-23.93,1.79-34.2,7.36,0,8.34.34,16.87,2.22,25.01.25,1.1,1.54,5.99,2.06,6.65.81,1.04,10.32,3.64,12.11,4.04,4.42.98,9.01,1.59,13.54,1.74l-1.74,3.48c-5.57-.3-22.89-3.36-26.28-7.84-3.91-5.16-4.83-26.5-3.8-32.93.38-2.4,1.06-2.55,3.09-3.72,8.26-4.78,23.53-6.77,33.01-6.49Z" fill="#d0d1cf"/>
            <path d="M96.66,81.5c-.56,1.3-1.14,2.6-1.9,3.8-8.3,3.9-20.15,5.56-29.29,5.07l1.74-3.48c10.08.33,20.07-1.89,29.45-5.38Z" fill="#989899"/>
            <path d="M94.76,85.3c.76-1.2,1.34-2.5,1.9-3.8,3.09-7.18,5.64-24.62,4.43-32.3-.13-.85-.79-2.04-.79-3.01,2,1.2,2.44.83,2.85,3.4,1,6.25-.13,27.86-3.8,32.93-.78,1.08-3.37,2.19-4.59,2.77Z" fill="#2d97d4"/>
            <path d="M100.3,46.19c0,.97.66,2.16.79,3.01-9.12-4.57-19.38-6.86-29.61-7.12l-1.66-.32c-.16-.1.49-1.75.55-1.82.46-.48,1.06.07,1.11-.55,8.61.25,21.4,2.35,28.81,6.81Z" fill="#989899"/>
            <g>
              <path d="M71.49,42.07c10.22.27,20.48,2.55,29.61,7.12,1.21,7.67-1.34,25.11-4.43,32.3-9.37,3.49-19.37,5.71-29.45,5.38-4.53-.15-9.12-.77-13.54-1.74-1.79-.4-11.3-3-12.11-4.04-.52-.66-1.8-5.55-2.06-6.65-1.87-8.14-2.22-16.67-2.22-25.01,10.26-5.58,22.55-7.67,34.2-7.36Z"/>
              <g>
                <path d="M89.54,46.19l-.32.32-1.27.24-21.21,37.92-.32.95c-3.07-.12-6.17-.57-9.18-1.11-.33-.64.32-2.54.32-2.69l.87.16,20.82-37.13-1.03-.24-20.66,36.89c-.06-.53-3.97-7.97-4.59-9.66l13.93-28.5c7.83-.23,15.15.66,22.64,2.85Z" fill="#eaa031"/>
                <path d="M66.42,85.61l.32-.95,1.42-.24,21.06-37.92.32-.32c2.34.68,4.66,1.37,6.89,2.37,1.26,10.93-.54,22.01-3.4,32.53-8.17,3.33-17.75,4.86-26.6,4.51Z" fill="#f37521"/>
                <path d="M52.96,71.84c.62,1.68,4.53,9.13,4.59,9.66.01.1,0,.21,0,.32,0,.15-.65,2.05-.32,2.69-.23-.04-.41-.12-.63-.16.12-.62-.52-.78-.79-1.11-3.43-4.2-6.84-9.05-8.47-14.25l-2.14,8.79c-.08.15-.28-.09-.32-.16-.41-.78-1.36-6.61-1.58-7.92-1.08-6.26-1.79-12.62-1.58-19l6.49-2.85c.31,8.17,1.92,16.33,4.75,23.99Z" fill="#f1efef"/>
                <path d="M56.61,84.35c-.47-.09-.96-.22-1.42-.32l.63-.79c.27.33.91.48.79,1.11Z" fill="#fabc4e"/>
                <polygon points="89.22 46.51 68.16 84.42 66.74 84.66 87.95 46.75 89.22 46.51" fill="#0270b3"/>
                <path d="M57.56,81.81c0-.1.01-.21,0-.32l20.66-36.89,1.03.24-20.82,37.13-.87-.16Z" fill="#0270b3"/>
                <g>
                  <path d="M66.9,43.34l-13.93,28.5c-2.83-7.65-4.44-15.81-4.75-23.99l-6.49,2.85c-.21,6.38.5,12.73,1.58,19,.23,1.31,1.17,7.14,1.58,7.92.04.07.23.31.32.16l2.14-8.79c1.63,5.2,5.04,10.04,8.47,14.25l-.63.79c-1.95-.41-11.83-2.83-12.67-4.04-.49-.71-1.86-7.02-2.06-8.23-1.2-7.23-1.13-14.71-.63-22.01,8.15-4.32,17.87-6.14,27.07-6.41Z" fill="#f37521"/>
                  <polygon points="59.38 45.08 53.36 60.76 54.55 46.43 59.38 45.08" fill="#f1efef"/>
                </g>
              </g>
            </g>
          </g>
        </g>
      </g>
    </g>
  </g>
  <g id="c" data-name="Generative Object">
    <g opacity=".5">
      <path d="M68.27,55.38c.18.13,1.29.98,1.27,1.11-.98,1.23-1.75,2.61-2.32,4.07-.14.37-.34.73-.36,1.14-.89-.17-1.79-.4-2.68-.55.12-.76.38-1.48.64-2.21l1.23-2.39c.24-.37.48-.62.73-.96.06-.08.1-.17.14-.23,0,0,0-.03.05-.09.17.04.43-.5.52-.5.04,0,.47.45.55.5.07.05.24.08.25.09Z" fill="#fff"/>
      <path d="M73.23,67.21c-1.33,1.06-2.75,2-4.14,2.98,1.42,1.66,3.46,2.6,5.48,3.3.49-1.34.8-2.75,1.11-4.14,0,0,.07,0,.05-.09.01.01.25.14.32.18-.1.04-.07.16-.09.23-.33,1.03-.57,2.08-.86,3.12.03.1,1.72.42,1.93.43.47.03.93-.09,1.39-.02-1.11.21-2.23,0-3.3-.3l-1.3,4.44c1.61.4,3.31.5,4.96.43v.09c-1.65.07-3.32-.06-4.94-.41l-1.14,3.59c.12-.8.38-1.58.57-2.37,0-.03,0-.06,0-.09.11-.45.17-.93.27-1.34.28-1.1.75-2.24,1-3.37-2.15-.74-4.07-1.95-5.57-3.66l-.48.36c.04-.09-.1-.11-.07-.18.08-.19,2.86-2.13,3.25-2.41,0,0,0-.02.05-.05.07-.05.15-.08.23-.14.28-.2.71-.56,1-.68.08-.03.18-.1.25-.09l.02.18Z" fill="#154a58"/>
      <path d="M58.81,60.38c.12.02.13,0,.14,0,1.65.24,3.31.5,4.96.77.17.03.21-.01.27,0,.89.15,1.79.38,2.68.55.01,0,.03,0,.05,0,.84.16,1.67.3,2.5.5-.02.05-.06.08-.05.14-.01,0-.07.07-.2.05-.41-.08-.92-.22-1.32-.36-.08.05-.02.22-.02.23-.24.88-.25,1.83-.2,2.73.45-.17,1.95-.17,2.27-.36.08-.05.83-1.42.98-1.64.07-.1.18-.2.23-.32.12.21-.11.27-.18.39-.31.51-.57,1.07-.86,1.57-.03.05-.04.1-.09.14-.26.17-.85.05-1.07.09-.42.07-1.04.28-1.5.36-.56.1-1.16.14-1.73.23-.11.08-.02.09-.02.14,0,.19.2.93.27,1.16.41,1.39,1.13,2.75,1.82,4.03-.06.04-.12.09-.18.14-1.03-1.64-1.67-3.47-2.34-5.28l-3.16.66c.07.93.42,1.81.77,2.66h-.05c-.2-.47-.87-2.44-1.09-2.64-.07-.06-.12-.03-.14-.09,1.94-.44,3.88-.88,5.85-1.18,0-.93.15-1.85.2-2.78,0-.02.11-.2.02-.27-2.6-.52-5.25-.83-7.87-1.27-.23-.04-.56-.18-.82-.23-.23-.04-.81-.15-.98,0-1.24-.24-2.93-.37-4.07-.68-.03,0-.22-.06-.14-.14,1.68.34,3.38.49,5.07.73Z" fill="#154a58"/>
      <path d="M71.68,67.98c-.39.28-3.18,2.22-3.25,2.41-.03.07.1.1.07.18l-3.64,2.75c1.03,1.28,2.32,2.49,3.73,3.34v.05c-.69-.42-1.36-.84-1.98-1.36-.72-.6-1.3-1.34-2-1.96l-5.89,4.12,6.19-4.69c-.96-1.16-1.56-2.52-2.14-3.89h.05c.56,1.33,1.35,2.62,2.21,3.78.89-.54,1.68-1.22,2.52-1.82.06-.05.12-.1.18-.14,1.31-.93,2.63-1.86,3.96-2.78Z" fill="#063241"/>
      <path d="M87.24,67.98s0,.07,0,.09l-1.68,1.71c1.33,1.32,2.71,2.59,4.05,3.89.01.01.03.03.05.05,1.78,1.73,3.59,3.44,5.35,5.19.13.13.43.39.52.52,0,.01.13.18.02.16-2.1-2-4.27-3.94-6.39-5.91-.05-.04-.09-.09-.14-.14-.18-.17-1.16-1.22-1.25-1.23-.11-.01-.2.25-.34.23.08-.1.12-.22.23-.3-.09-.1-.18-.19-.32-.16l-2.07-2.18-1.11.77s.09-.11.09-.11c0,0-.08-.08-.05-.16.12-.09.28-.2.36-.32.28-.09.47-.33.68-.5.63-.5,1.19-1.04,1.73-1.64-.49.62-1.05,1.14-1.57,1.73.12,0,.23-.11.32-.18.32-.24,1.25-1.18,1.52-1.5Z" fill="#154a58"/>
      <path d="M89.74,56.34c.28.29.99,1.65,1.18,2.07.31.66.54,1.37.75,2.07l3.05-.68c.2-.07,0-.51-.07-.68l.05-.05c.1.2.21.4.27.61l5.73-1.23-6.51,1.64c.6,1.57.84,3.29.89,4.98-.24-1.68-.29-3.43-1-5l-3.48.8c.11,1.03.1,2.04,0,3.07l-.09-.05c.09-.98.2-2.08-.11-3l-2.57.55c.02-.05.04-.06.05-.14.01-.12.06-.21,0-.36.02.05.21.4.25.41l3.48-.89c-.47-1.46-1.1-2.87-2-4.12.08-.05-.06-.08.07-.09.02.05.04.06.07.09Z" fill="#216e7c"/>
      <path d="M67.59,62.25l-7.94-1.46c-.19,1.73-.18,3.66.11,5.39.02.1.04.38.18.39-.08.02-.17.07-.27.09.13-.08.06-.31.05-.43-.24-1.81-.42-3.63-.18-5.46-.03-.08-1.4-.26-1.59-.3.17-.15.74-.04.98,0,.26.05.59.19.82.23,2.62.45,5.27.76,7.87,1.27.09.08-.02.26-.02.27Z" fill="#2e7c8c"/>
      <path d="M89.65,73.71s-.03-.03-.05-.05l2.23-3.03-1.66-.93-1.82,2.68,1.71-2.75c-.33-.26-2.74-1.37-2.82-1.57,0-.02,0-.06,0-.09,0-.01.1-.04.09-.09l4.73,2.66-2.41,3.16Z" fill="#216e7c"/>
      <path d="M88.42,65.84c.56.15,1.12.3,1.68.45.01,0,.03,0,.05,0,1.39.4,3.36.87,4.64,1.46-2.04-.6-4.09-1.2-6.14-1.73l-1.32,1.87c0,.05-.08.08-.09.09-.27.32-1.2,1.26-1.52,1.5-.09.07-.2.17-.32.18.52-.59,1.08-1.11,1.57-1.73s.96-1.3,1.32-2c.03-.06-.03-.12.14-.09Z" fill="#154a58"/>
      <path d="M94.79,67.75c.16.07.47.12.36.27-2.04-.58-4.32-1.12-6.3-1.82-.08-.03-.22-.06-.2-.18,2.05.53,4.1,1.13,6.14,1.73Z" fill="#2e7c8c"/>
      <path d="M73.27,78.58s0,.06,0,.09c-1.69-.38-3.22-1.07-4.69-1.96v-.05c.38.23.78.42,1.16.64l.11-.07,2.39-4.3-2.39,4.39,3.41,1.25Z" fill="#216e7c"/>
      <path d="M95.16,68.03c.1-.15-.2-.2-.36-.27,1.66.49,3.42.95,4.98,1.59-1.54-.44-3.08-.88-4.62-1.32Z" fill="#154a58"/>
      <path d="M61.54,66.21c.02.07.07.03.14.09l-6.37,1.43c1.43-.42,2.91-.72,4.37-1.07.1-.02.19-.07.27-.09.53-.12,1.06-.24,1.59-.36Z" fill="#216e7c"/>
      <path d="M86.47,75.49c-2.34,1.34-4.97,2.25-7.69,2.37v-.09c2.66-.11,5.39-.99,7.69-2.32v.05Z" fill="#7baab9"/>
      <path d="M58.94,60.38s-.01.02-.14,0l1.21-3.37-1.07,3.37Z" fill="#53a0ae"/>
      <path d="M89.15,73.67c-.84.7-1.74,1.28-2.68,1.82v-.05c.88-.51,1.86-1.16,2.55-1.91.05.04.09.09.14.14Z" fill="#3c8ca4"/>
      <path d="M90.61,63.93c-.08.8-.25,1.59-.45,2.37-.01,0-.03,0-.05,0,.16-.8.33-1.59.41-2.41l.09.05Z" fill="#78b6bd"/>
      <path d="M69.75,77.44c.1.02-.43.89-.5.96l.5-.96Z" fill="#9bb9c6"/>
      <path d="M99.3,50.15c.22-.15.45-.38.73-.43-.2.22-.48.29-.73.43Z" fill="#bcdfe6"/>
      <path d="M66.77,55.61l.14-.23c-.04.05-.07.14-.14.23Z" fill="#dfeceb"/>
      <path d="M67.27,60.61c-.14.35-.26.73-.36,1.09-.01,0-.03,0-.05,0,.02-.41.22-.77.36-1.14l.05.05Z" fill="#53a0ae"/>
      <path d="M78.37,70.48l.16,2.78c1.55-.25,2.99-.75,4.41-1.41l1.27,2.37-1.34-2.62c.01-.13,1.12-.7,1.27-.93l1.11-.77,2.07,2.18c-.12.03-1.59,1.3-1.89,1.5-2.02,1.36-4.4,2.19-6.85,2.3.13.19.62.12.84.11,2.12-.09,6.64-1.77,7.98-3.46.14.02.23-.24.34-.23.09,0,1.07,1.06,1.25,1.23-.69.75-1.66,1.4-2.55,1.91-2.29,1.33-5.03,2.21-7.69,2.32-1.65.07-3.35-.04-4.96-.43l1.3-4.44c1.07.3,2.19.51,3.3.3-.46-.06-.92.05-1.39.02-.21-.01-1.9-.34-1.93-.43.29-1.04.54-2.09.86-3.12.68.51,1.54.89,2.41.82Z" fill="#dfeceb"/>
      <path d="M73.27,78.58l-3.41-1.25,2.39-4.39-2.39,4.3-.11.07c-.38-.21-.78-.41-1.16-.64-1.41-.85-2.7-2.06-3.73-3.34l3.64-2.75.48-.36c1.5,1.71,3.42,2.92,5.57,3.66-.25,1.13-.72,2.26-1,3.37-.1.41-.16.89-.27,1.34Z" fill="#dfeceb"/>
      <path d="M75.68,69.35c-.32,1.39-.62,2.8-1.11,4.14-2.03-.7-4.07-1.64-5.48-3.3,1.39-.98,2.81-1.92,4.14-2.98,0,0,.03,0,.09-.05.77.73,1.38,1.73,2.37,2.18Z" fill="#fff"/>
      <path d="M70.64,65.98c.36.65.74,1.3,1.09,1.96-.04.03-.04.04-.05.05-1.32.92-2.65,1.84-3.96,2.78-.69-1.27-1.41-2.63-1.82-4.03-.07-.23-.28-.97-.27-1.16l4.41-.64c.2.34.4.7.59,1.05Z" fill="#fff"/>
      <path d="M75.23,68.75c.17.17.31.35.5.5.02.09-.04.09-.05.09-.99-.46-1.59-1.45-2.37-2.18.09-.07.14-.26.25-.23l1.66,1.82Z" fill="#7baab9"/>
      <path d="M67.59,62.25c-.06.92-.21,1.84-.2,2.78-1.97.31-3.91.75-5.85,1.18-.53.12-1.06.24-1.59.36-.14,0-.16-.28-.18-.39-.3-1.73-.3-3.66-.11-5.39l7.94,1.46Z" fill="#fff"/>
      <path d="M67.54,70.89c-.84.6-1.64,1.28-2.52,1.82-.85-1.16-1.65-2.45-2.21-3.78-.36-.85-.7-1.73-.77-2.66l3.16-.66c.67,1.81,1.32,3.64,2.34,5.28Z" fill="#dfeceb"/>
      <path d="M71.59,58.25c-.2.29-.37.61-.55.91-.59.99-1.15,2-1.64,3.05-.83-.2-1.67-.34-2.5-.5.11-.37.22-.74.36-1.09.57-1.44,1.4-2.89,2.43-4.05l1.89,1.68Z" fill="#fff"/>
      <path d="M70.86,62.98c-.15.22-.9,1.59-.98,1.64-.33.19-1.82.19-2.27.36-.05-.9-.04-1.85.2-2.73l3.05.73Z" fill="#fff"/>
      <path d="M69.36,62.34c.14.03.07.08.14.09.4.07.88.21,1.27.14.15.02.24.08.32.09-.05.11-.16.22-.23.32l-3.05-.73s-.05-.18.02-.23c.4.15.9.29,1.32.36.13.02.19-.05.2-.05Z" fill="#53a0ae"/>
      <path d="M69.95,64.75c.03.06.06.12.09.18l-4.41.64c0-.05-.09-.06.02-.14.57-.08,1.16-.12,1.73-.23.46-.08,1.08-.29,1.5-.36.22-.04.81.07,1.07-.09Z" fill="#3c8ca4"/>
      <path d="M89.61,73.67c-1.34-1.3-2.72-2.57-4.05-3.89l1.68-1.71c.08.2,2.49,1.31,2.82,1.57l-1.71,2.75,1.82-2.68,1.66.93-2.23,3.03Z" fill="#dfeceb"/>
      <path d="M88.29,65.93c-.36.7-.83,1.39-1.32,2-.54.6-1.1,1.14-1.73,1.64-.17-.18-.35-.35-.55-.5-.09-.12-.03-.1.02-.18.2-.31.42-.6.61-.91.18-.28.51-.64.59-.96l.86-1.5c.51.12,1.01.26,1.5.41Z" fill="#fff"/>
      <path d="M87.42,72.53c-1.34,1.69-5.87,3.37-7.98,3.46-.23,0-.71.07-.84-.11,2.45-.11,4.83-.93,6.85-2.3.3-.2,1.77-1.47,1.89-1.5.14-.04.23.06.32.16-.1.08-.15.2-.23.3Z" fill="#154a58"/>
      <path d="M84.19,70.39c-.04.08.05.15.05.16,0,0-.07.08-.09.11-.15.23-1.26.8-1.27.93l1.34,2.62-1.27-2.37c-1.42.66-2.86,1.16-4.41,1.41l-.16-2.78s.05-.05.09-.05c.02.05.09.26.09.27.02.29-.08,2.23.07,2.32,1.49-.01,2.96-.59,4.21-1.34.01-.1-.02-.2-.05-.3.34-.34.76-.58,1.14-.86.03-.02.25-.11.27-.14Z" fill="#216e7c"/>
      <path d="M90.52,63.89c-.08.82-.25,1.61-.41,2.41-.56-.16-1.12-.3-1.68-.45-.82-.22-1.63-.43-2.46-.64-.07-.17-.06-.37-.09-.55-.13-.88-.34-1.76-.57-2.59.17-.03.35-.06.52-.09.27-.05,1.9-.21,1.98-.27.05-.04,0-.17.02-.27l2.57-.55c.31.93.21,2.02.11,3Z" fill="#fff"/>
      <path d="M86.83,58.11c.32.87.7,1.99,1.05,2.82l-1.14-2.75c-.12-.08-.6.32-.73.39-.38.21-.74.5-1.05.68-.03.02-.06-.05-.07-.05-.27.16-.52.36-.8.5-.1.05-.29.22-.34.23-.1.02-.06-.09-.07-.09.83-.58,1.69-1.11,2.55-1.64.14-.08.38-.17.55-.27-.02.09.02.12.05.18Z" fill="#216e7c"/>
    </g>
    <g opacity=".5">
      <path d="M68.13,55.06s.1.06.14.09c.98.78,2.18,1.65,3.09,2.46.1.09.16.28.36.41,0,.1-.09.16-.14.23l-1.89-1.68c-1.03,1.16-1.86,2.6-2.43,4.05l-.05-.05c.57-1.47,1.34-2.84,2.32-4.07.01-.13-1.1-.99-1.27-1.11-.26-.27-.57-.49-.86-.73-1.09-.87-3.6-2.6-4.39-3.5-.05-.05-.14-.12,0-.14,1.68,1.38,3.42,2.69,5.12,4.05Z" fill="#154a58"/>
      <path d="M99.3,50.15c-2.31,1.56-4.72,2.96-7.01,4.55-.04-.04-.04-.04-.07-.09-.1.02-.11.13-.11.14-.78.54-1.63.99-2.37,1.59-.03-.03-.05-.04-.07-.09-.13,0,.01.04-.07.09-.95.54-1.83,1.23-2.78,1.77-.02-.06-.07-.1-.05-.18,2.81-1.73,5.57-3.54,8.37-5.28,1.37-.85,2.74-1.71,4.14-2.5Z" fill="#2e7c8c"/>
      <path d="M86.69,51.83s-.03.08-.05.09c-.7.91-1.5,1.75-2.14,2.71l2.27,1.96c-.79-.61-1.48-1.35-2.37-1.84v-.2l3.23-4.16c.87-1.08,1.69-2.2,2.62-3.23l-.57.89c1.41,1.01,2.7,2.21,3.64,3.68-1.14-1.28-2.2-2.72-3.75-3.53-1.01,1.17-1.94,2.42-2.89,3.64Z" fill="#216e7c"/>
      <path d="M74.64,50.47c-1.2.33-2.41.78-3.46,1.43.24.33.44.67.64,1.02,0,.01.02.09.05.14-1.3.49-2.54,1.2-3.59,2.09-.04-.03-.1-.06-.14-.09l3.64-2.12-2.84-4.48,2.18,3.28c1.14-.47,2.29-1.13,3.53-1.27Z" fill="#53a0ae"/>
      <path d="M84.42,54.74l-2.68,3.32c.02-.15.15-.24.23-.36.08-.13.14-.29.27-.39-.22,0-.4-.13-.59-.2l.66.14c1.59-2.1,3.2-4.21,4.84-6.28.04-.04.06-.05.09-.09.13-.17.28-.33.41-.5l-3.23,4.16v.2Z" fill="#154a58"/>
      <path d="M95.16,52.65c-2.8,1.74-5.56,3.55-8.37,5.28-.17.1-.41.19-.55.27.39-.27.79-.52,1.18-.77.05-.03.04-.04.05-.05,1.06-.67,2.12-1.34,3.18-2,.05-.03.09-.06.14-.09,1.44-.9,2.9-1.79,4.37-2.64Z" fill="#154a58"/>
      <path d="M84.74,49.37s-.07,0-.09,0c-.71-.21-1.47-.62-2.21-.82-1.39-.38-3-.59-4.44-.5,0-.06,0-.12,0-.18,2.37.09,4.6.46,6.73,1.5Z" fill="#53a0ae"/>
      <path d="M64.18,61.16c-.06-.01-.11.03-.27,0,.08.03.12-.1.14-.16.52-1.71,1.02-2.93,2-4.44l-1.23,2.39c-.26.72-.52,1.45-.64,2.21Z" fill="#3c8ca4"/>
      <path d="M92.29,54.7c.72.6,1.97,3.42,2.41,4.37l-.05.05c-.53-1.51-1.55-3.13-2.55-4.37,0,0,.01-.11.11-.14.02.05.03.06.07.09Z" fill="#154a58"/>
      <path d="M90.79,55.29s-.09.06-.14.09c-1.11-1.37-2.48-2.57-4-3.46.01-.01.03-.08.05-.09,1.55.92,2.86,2.16,4.09,3.46Z" fill="#53a0ae"/>
      <path d="M68.27,55.38s-.18-.04-.25-.09c-.08-.05-.51-.5-.55-.5-.09,0-.35.54-.52.5.15-.2.39-.39.45-.64.29.23.6.46.86.73Z" fill="#bcdfe6"/>
      <path d="M87.15,50.97c-1.65,2.07-3.25,4.17-4.84,6.28l-.66-.14c-.36-.14-.75-.26-1.11-.36-.31-.08-2.16-.52-2.34-.5l-.11-4.05c.54.1,1.1.16,1.64.27.37.07,3.17.82,3.28.96.08.1-.08.3,0,.32l1.68-4.19,2.48,1.41Z" fill="#fff"/>
      <path d="M84.65,49.37c-.26.41-1.41,3.85-1.61,3.87-.09,0-1.46-.56-1.73-.64-1.08-.3-2.21-.43-3.3-.71,0-1.28,0-2.56,0-3.84,1.44-.09,3.04.12,4.44.5.74.2,1.5.61,2.21.82Z" fill="#fff"/>
      <g>
        <path d="M76.41,54.01c-1.08.21-2.16.49-3.14,1-.46-.71-.98-1.4-1.46-2.09-.2-.35-.4-.7-.64-1.02,1.05-.65,2.26-1.11,3.46-1.43.33-.09.67-.15,1-.23.27-.06,2.11-.47,2.18-.39l.14,3.96c-.52.04-1.03.11-1.55.2Z" fill="#fff"/>
        <path d="M78,47.87c0,.06,0,.12,0,.18,0,1.28,0,2.56,0,3.84,1.09.27,2.22.41,3.3.71.27.07,1.64.64,1.73.64.21-.02,1.36-3.45,1.61-3.87.02,0,.06,0,.09,0,.88.43,1.67.99,2.5,1.5-.04.04-.06.05-.09.09l-2.48-1.41-1.68,4.19c-.08-.02.08-.22,0-.32-.11-.13-2.91-.88-3.28-.96-.54-.11-1.09-.18-1.64-.27l.11,4.05s-.05,0-.05.05c-.04-.78-.16-1.56-.18-2.34-.51-.01-1,.08-1.5.16l-.05-.09c.51-.1,1.03-.16,1.55-.2l-.14-3.96c-.08-.08-1.92.33-2.18.39-.26-.29-.4-.9-.5-1.3-.28-1.09-.42-2.22-.64-3.32l1.39,4.44,1.93-.48c.03-.78,0-1.59.09-2.37,0-.04.03-.43.14-.36-.08.32-.05.69-.05,1.02Z" fill="#154a58"/>
        <path d="M73.27,55.02c.27.42.5.9.77,1.32-.1,0-.16.08-.23.14.29-.31-.12-.49-.27-.73-.56-.89-1.16-1.78-1.68-2.68-.03-.05-.04-.12-.05-.14.48.7,1,1.39,1.46,2.09Z" fill="#205a69"/>
        <path d="M76.41,54.01l.05.09c-1.13.18-2.12.52-3.18.91.98-.51,2.06-.79,3.14-1Z" fill="#53a0ae"/>
        <path d="M78.14,56.29c0,.16.04.37.05.5,0,.16,0,.32,0,.48l-.11.11-2.8.64c-.02-.06-.51-.6-.59-.73-.21-.32-.43-.64-.64-.96-.27-.42-.5-.9-.77-1.32,1.07-.39,2.06-.73,3.18-.91.5-.08.99-.17,1.5-.16.02.78.14,1.57.18,2.34Z" fill="#fff"/>
      </g>
      <path d="M94.65,59.11c.06.17.27.61.07.68l-3.05.68c-.21-.7-.45-1.41-.75-2.07-.19-.42-.9-1.78-1.18-2.07.74-.6,1.58-1.05,2.37-1.59,1,1.24,2.02,2.86,2.55,4.37Z" fill="#fff"/>
      <path d="M87.88,60.93c-.35-.83-.73-1.95-1.05-2.82.95-.55,1.83-1.23,2.78-1.77.9,1.24,1.54,2.66,2,4.12l-3.48.89s-.23-.36-.25-.41Z" fill="#fff"/>
      <path d="M71.86,53.06c.52.91,1.13,1.79,1.68,2.68l-2.18,1.87c-.91-.81-2.12-1.68-3.09-2.46,1.06-.9,2.3-1.6,3.59-2.09Z" fill="#fff"/>
      <path d="M90.65,55.38c-1.06.66-2.13,1.33-3.18,2l-.66-.73.61.77c-.4.25-.8.51-1.18.77-.86.53-1.72,1.06-2.55,1.64-.08,0-.13.07-.2.05-.32-.12-1.15-.97-1.43-1.25-.08-.08-.34-.5-.36-.52.04,0,.04-.01.05-.05l2.68-3.32c.88.5,1.57,1.23,2.37,1.84l-2.27-1.96c.64-.96,1.43-1.8,2.14-2.71,1.53.89,2.89,2.09,4,3.46Z" fill="#fff"/>
      <path d="M87.47,57.38s0,.01-.05.05l-.61-.77.66.73Z" fill="#53a0ae"/>
    </g>
    <g opacity=".5">
      <path d="M82.6,71.07c.04.09.18.3.18.32.03.1.06.19.05.3-1.25.75-2.72,1.33-4.21,1.34-.15-.09-.05-2.03-.07-2.32.72-.21,2.73-.52,3.28-.96.26.39.57.9.77,1.32Z" fill="#dfeceb"/>
      <path d="M79.03,71.12l.39.2c.02.11-.56-.14-.39-.2Z" fill="#bcdfe6"/>
    </g>
    <g>
      <path d="M72.91,64.8c.42.44.84.87,1.27,1.3l-1.23,1.02c-.29.12-.72.49-1,.68l-.55-1.14c.15.1.98.61,1,.39-.08-.32-.45-.31-.73-.39.12-.73.74-1.31,1.23-1.87Z" fill="#bcdfe6"/>
      <path d="M72.55,64.39c.09.09.15.23.23.32-.14.29-.71.04-.91.16-.09.06-.18.58-.23.68-.03.06-.4.51-.41.55-.03.09.1.37.05.52.04.04.13.04.14.05l.55,1.14c-.08.05-.16.09-.23.14-.35-.66-.73-1.3-1.09-1.96-.05-.33-.01-.24.27-.41.32.48.36-.48.36-.68.36-.05.45-.05.45-.45.28-.03.54-.05.82-.05Z" fill="#71939f"/>
      <path d="M78.14,70.21c.07.01.24,0,.25,0,.11.08.04.16.07.23-.04,0-.05.04-.09.05-.87.07-1.73-.31-2.41-.82.02-.07,0-.18.09-.23.81.51,1.18.59,2.09.77Z" fill="#7baab9"/>
      <path d="M70.91,60.11c-.12.14-.28.32-.36.52-.01.03.09.14.05.23-.08.17-.66,1.27-.73,1.36-.13.16-.19.13-.36.2-.07-.01,0-.06-.14-.09-.01-.06.02-.09.05-.14.49-1.05,1.05-2.06,1.64-3.05l.11.14c.05-.13.2-.28.25-.36.01.45-.35.78-.5,1.18Z" fill="#216e7c"/>
      <path d="M71.73,64.43c0,.41-.1.41-.45.45-.08.01-.44-.09-.59.02-.02.03.21.63.23.66-.29.17-.32.08-.27.41-.2-.35-.39-.7-.59-1.05-.03-.06-.06-.12-.09-.18.06-.04.06-.08.09-.14.06,0,.13,0,.18,0,.26-.04.52-.09.77-.14.23.09.49-.02.73-.05Z" fill="#466977"/>
      <path d="M72.14,62.75s.1,0,.14,0c.07.02.2.06.27.09.01,0,.14.13.23.14-.27-.01-.71-.07-.77.23-.03,0-.06,0-.09,0l.02-.32c-.78-.17-.59-.08-.93.41-.28.4-.63.86-.77,1.32-.06,0-.12,0-.18,0,.29-.5.55-1.06.86-1.57.07-.12.3-.18.18-.39.28.04.68.01,1.05.09Z" fill="#216e7c"/>
      <path d="M87.88,61.29c0,.08-.03.08-.05.14-.03.11.03.23-.02.27-.08.06-1.71.22-1.98.27-.07-.08-.03-.17-.05-.23.26-.11.55-.08.82-.14.11-.02.46-.05.5-.11.03-.05.18-1.06-.05-1.07.1-.07.21-.22.23-.23.01-.01.1.1.14-.05.16.38.28.77.45,1.14Z" fill="#71939f"/>
      <path d="M87.88,60.93c.06.15.01.24,0,.36-.18-.37-.29-.76-.45-1.14-.21-.49-.46-.96-.66-1.46-.27,0-.48.17-.71.27l-.05-.41c.12-.07.61-.46.73-.39l1.14,2.75Z" fill="#5d8390"/>
      <path d="M73.82,56.47c-.27.2-.51.43-.77.64-.32.25-.94.62-1.18.91,0,0-.02.01-.05.05-.03,0-.06-.03-.09-.05-.21-.13-.26-.32-.36-.41l2.18-1.87c.15.24.56.42.27.73Z" fill="#063241"/>
      <path d="M71.82,58.06s-.21.49-.27.59c-.05.08-.08.17-.14.27-.05.09-.2.24-.25.36l-.11-.14c.18-.3.35-.62.55-.91.05-.07.14-.13.14-.23.03.02.06.04.09.05Z" fill="#205a69"/>
      <path d="M74.05,56.34c.21.32.43.63.64.96-.13.28-.51.26-.68.41-.26-.21-.64-.56-.96-.59.26-.21.5-.44.77-.64.07-.05.13-.14.23-.14Z" fill="#5d8390"/>
      <path d="M71.91,63.2s.06,0,.09,0c.48.06,1.01.29,1.52.27.16.08-.25.33.05.32l.57-.59c.06,0,.24-.03.27.02-.37.35-.74.35-.34.89-.36-.01-.71,0-1.07.05-.67.08-1.33.2-2,.32-.26.04-.52.09-.77.14.14-.46.49-.92.77-1.32.02.16.17-.12.3-.14.2-.02.42.02.61.05Z" fill="#78b6bd"/>
      <path d="M72.77,62.98c.44.02.92.16,1.36.23l-.57.59c-.29.01.12-.24-.05-.32-.51.02-1.05-.21-1.52-.27.06-.3.5-.24.77-.23Z" fill="#53a0ae"/>
      <path d="M74.09,60.07c.08.08.26.19.32.27.04.05.19.2.18.25-.17.16-.32.33-.5.48-.12.1-.42.02-.5.05-.04-.11-.14-.13-.23-.18.13-.12.21-.31.32-.45s.24-.42.41-.41Z" fill="#53a0ae"/>
      <path d="M73.68,61.34c-.08.17-.26.32-.36.45-.43.05-.73.68-1.05.96-.04,0-.1,0-.14,0,.28-.41.56-.82.91-1.18.22-.03.44-.13.64-.23Z" fill="#2e7c8c"/>
      <path d="M73.32,61.79c-.26.34-.48.72-.77,1.05-.07-.03-.2-.07-.27-.09.32-.27.62-.91,1.05-.96Z" fill="#53a0ae"/>
      <path d="M73,64.16c0,.17.14.07.14.27-.18-.04-.41-.04-.59-.05-.28,0-.54.01-.82.05-.24.03-.5.14-.73.05.67-.12,1.33-.24,2-.32Z" fill="#205a69"/>
      <path d="M74.09,61.07c-.13.1-.26.2-.41.27-.19.1-.42.19-.64.23.21-.21.22-.36.55-.45.08-.02.38.06.5-.05Z" fill="#bcdfe6"/>
      <path d="M72.91,64.8c-.48.55-1.11,1.14-1.23,1.87-.1-.03-.32-.15-.41-.05.06-.16-.07-.43-.05-.52,0-.03.38-.48.41-.55.05-.1.14-.63.23-.68.2-.12.77.13.91-.16.02.02.09.04.14.09Z" fill="#7baab9"/>
      <path d="M71.68,66.66c.28.07.65.07.73.39-.02.22-.85-.29-1-.39,0,0-.1,0-.14-.05.09-.1.31.02.41.05Z" fill="#dfeceb"/>
      <path d="M71.27,64.89c0,.2-.04,1.16-.36.68-.02-.03-.25-.63-.23-.66.15-.11.51-.01.59-.02Z" fill="#5d8390"/>
      <path d="M72.09,59.56s.22.25.32.32c-.34.19-.68.4-1.02.59-.04.02-.23-.02-.27,0-.12.06-.38.67-.48.82-.23.35-.53.65-.68,1.07.01.14.33.1.41.11.14.03.27.07.41.09-.39.08-.88-.06-1.27-.14.17-.07.23-.04.36-.2.07-.09.65-1.2.73-1.36.04-.09-.06-.19-.05-.23.09-.2.25-.38.36-.52,0,0,.03.11.14-.02.15-.19.23-.46.41-.61.25-.22.37-.09.64.09Z" fill="#53a0ae"/>
      <path d="M71.45,59.47c-.18.16-.26.43-.41.61-.11.14-.13.02-.14.02.15-.4.51-.73.5-1.18.06-.1.09-.19.14-.27.07.3.04.55-.09.82Z" fill="#7baab9"/>
      <path d="M73.36,60.93c.08.05.19.08.23.18-.32.09-.34.24-.55.45-.35.36-.63.77-.91,1.18-.37-.08-.77-.05-1.05-.09-.08-.01-.17-.07-.32-.09s-.27-.06-.41-.09c-.14-.51.48-.72.27-1.18.1-.15.36-.76.48-.82.05-.02.23.02.27,0,.34-.19.68-.4,1.02-.59.13.08.99.56,1,.61.01.04-.28.34-.27.36.03.1.2.05.23.07Z" fill="#92d5df"/>
      <path d="M71.91,63.2c-.2-.02-.42-.07-.61-.05-.13.01-.27.29-.3.14.34-.49.16-.58.93-.41l-.02.32Z" fill="#53a0ae"/>
      <path d="M75.28,58.02c.05.13-.05.22-.09.32-.03.07-.16.19-.18.23-.39-.21-.67-.59-1-.86.18-.15.55-.13.68-.41.08.13.57.67.59.73Z" fill="#7baab9"/>
      <path d="M87.29,60.2s-.13.16-.23.23c-.09.07-.69.52-.68.57,0,.02.14,0,.18.14.04.15.08.32.05.48-.26.05-.56.03-.82.14-.17-.48-.27-1.06-.45-1.59.48-.04.58-.33.93-.55.2.5.51.17.64.64.1.01.12-.35.39-.05Z" fill="#bcdfe6"/>
      <path d="M87.42,60.16c-.04.14-.12.04-.14.05-.26-.31-.28.06-.39.05-.13-.47-.44-.14-.64-.64-.35.22-.46.5-.93.55-.09-.25-.17-.52-.27-.77.33.03.71-.28,1-.41.23-.1.43-.27.71-.27.2.49.45.97.66,1.46Z" fill="#9bb9c6"/>
      <path d="M86.6,61.61c.04-.15,0-.33-.05-.48-.04-.14-.18-.11-.18-.14-.01-.05.59-.5.68-.57.22,0,.08,1.02.05,1.07-.04.06-.39.09-.5.11Z" fill="#a9cacf"/>
      <path d="M86.06,58.97c-.29.13-.67.44-1,.41,0,0-.1-.09-.09-.14.31-.18.67-.47,1.05-.68l.05.41Z" fill="#71939f"/>
      <path d="M74,57.7c-.21.18-.29,1.01-.41,1.11-.09.08-.57-.11-.73.07-.33-.29-.73-.51-1-.86.24-.29.86-.66,1.18-.91.31.03.7.38.96.59Z" fill="#7baab9"/>
      <path d="M72.86,58.88c.11.1.24.25.36.36-.18.17-.53-.32-.57-.32-.04,0-.48.57-.57.64-.27-.18-.39-.31-.64-.09.14-.27.16-.52.09-.82.06-.1.25-.56.27-.59.03-.03.04-.04.05-.05.27.36.67.58,1,.86Z" fill="#216e7c"/>
      <path d="M75,58.56c-.28.5-.57,1-.91,1.46-.05-.05-.14-.09-.18-.14-.22-.22-.45-.43-.68-.64-.12-.11-.25-.27-.36-.36.15-.18.64.01.73-.07.12-.11.2-.93.41-1.11.33.27.61.66,1,.86Z" fill="#bcdfe6"/>
      <path d="M74.09,60.02s0,.04,0,.05c-.17,0-.31.26-.41.41-.42.06.16-.56.23-.59.05.05.14.09.18.14Z" fill="#2e7c8c"/>
      <path d="M73.23,59.25c.23.21.46.42.68.64-.07.03-.65.66-.23.59-.11.15-.19.33-.32.45-.03-.02-.2.03-.23-.07,0-.02.28-.33.27-.36-.02-.06-.87-.53-1-.61-.1-.07-.27-.29-.32-.32.09-.07.53-.64.57-.64.04,0,.39.49.57.32Z" fill="#53a0ae"/>
      <path d="M70.36,62.48c-.08-.02-.39.03-.41-.11.15-.42.45-.72.68-1.07.2.46-.41.67-.27,1.18Z" fill="#53a0ae"/>
      <g>
        <path d="M81.14,57.97c-1.15,1.53,1.3,2.19,1.16,3.68.84.05,1.62-.3,2.39-.59.05.11.09.21.14.32-.18.4-.57.49-.96.57l1.09-.07s-.06.06-.09.09c-.07.07-.18.19-.23.27-.27-.04-.51.15-.73.23-.35.12-.73.16-1.05.36-.04-.04-.17-.16-.23-.16-.04.28.4.45-.05.5.09.05.18.17.23.2l-1,.3c.38.03.76.03.66.52-.39-.07-.56.18-.93.16l2,1.11c-.07.21-.7,1.75-.8,1.77-.56-.48-.32-.25-.77.05-.18.12-.93.62-1.09.55-.11-.05-.26-.54-.41-.55-.14,0-2.27,1.28-2.32,1.41-.08.19.14,1.22-.02,1.5-.91-.19-1.28-.27-2.09-.77-.07-.05-.3-.17-.32-.18-.19-.15-.34-.33-.5-.5-.19-.19-1.54-1.81-1.55-1.93,0-.09.67-.54.77-.64,0-.1-1.33-1.21-1.41-1.41-.08-.19.09-.2.09-.34,0-.2-.14-.11-.14-.27.35-.04.71-.06,1.07-.05-.4-.53-.03-.53.34-.89-.03-.05-.21-.01-.27-.02-.44-.07-.92-.21-1.36-.23-.09,0-.22-.13-.23-.14.29-.32.51-.7.77-1.05.1-.13.29-.29.36-.45.15-.08.28-.17.41-.27.18-.14.33-.32.5-.48,0-.05-.14-.2-.18-.25.28-.5.86-1.24.86-1.82.25-.01.37.36.61.41.87.19,1.95-.35,2.78-.55.17-.12-.06-.83-.14-1,.06-.03.82.11.96.14.53.11,1.18.3,1.66.45Z"/>
        <path d="M73.14,64.43c0,.14-.17.15-.09.34.08.2,1.42,1.31,1.41,1.41-.1.1-.78.55-.77.64,0,.12,1.36,1.74,1.55,1.93l-1.66-1.82c-.11-.03-.16.16-.25.23-.06.05-.09.04-.09.05l-.02-.18c-.07-.01-.17.06-.25.09l1.23-1.02c-.43-.42-.86-.86-1.27-1.3-.05-.05-.11-.07-.14-.09-.08-.09-.14-.23-.23-.32.19,0,.41,0,.59.05Z" fill="#063241"/>
        <path d="M81.64,57.11c.19.07.37.2.59.2-.13.1-.19.25-.27.39l-3.78-.91c0-.13-.04-.34-.05-.5,0-.04.01-.04.05-.05.18-.02,2.04.42,2.34.5.37.1.76.23,1.11.36Z" fill="#002a40"/>
        <path d="M84.69,69.07c.19.15.38.32.55.5-.22.17-.41.41-.68.5.25-.35-.04-.41-.32-.64-.09-.08-.16-.18-.23-.23l.18-.5c.16.13.42.3.5.36Z" fill="#466977"/>
        <path d="M84.56,70.07c-.08.12-.25.22-.36.32-.03.02-.24.11-.27.14.15-.38.07-.77.32-1.09.28.23.57.29.32.64Z" fill="#5d8390"/>
        <path d="M85.65,65.16c.11.03.24.03.32.05.82.21,1.64.41,2.46.64-.17-.03-.1.03-.14.09-.5-.15-1-.29-1.5-.41,0,0,.02-.09-.02-.09-.27-.03-.47.71-.71.86.02-.05.06-.29.09-.39.02-.06.2-.14.18-.23-.03-.13-.35.16-.36.18-.02.03.1,0,.07.07-.03.06-.1.16-.11.18-.47-.12-.22-.39-.39-.55-.06-.05-.37.06-.16-.45.07.02.16.02.27.05Z" fill="#2e7c8c"/>
        <path d="M81.96,57.7c-.08.12-.2.21-.23.36,0,.03,0,.05-.05.05-.13-.1-.43-.1-.55-.14-.48-.15-1.13-.35-1.66-.45-.13-.03-.9-.17-.96-.14.08.17.3.88.14,1-.83.19-1.91.74-2.78.55-.25-.05-.37-.42-.61-.41,0-.08.01-.15-.09-.18.04-.1.14-.19.09-.32l2.8-.64.11-.11c0-.16,0-.32,0-.48l3.78.91Z" fill="#1d4a4c"/>
        <path d="M81.69,58.11s.28.44.36.52c.29.28,1.11,1.13,1.43,1.25.07.03.12-.05.2-.05,0,0-.03.11.07.09.05-.01.25-.18.34-.23.17.45.38.91.59,1.36-.77.3-1.55.64-2.39.59.14-1.5-2.31-2.15-1.16-3.68.11.04.41.04.55.14Z" fill="#2e5f61"/>
        <path d="M84.97,59.25s.09.13.09.14c.1.25.19.52.27.77.18.53.28,1.11.45,1.59.02.06-.03.15.05.23-.17.03-.35.06-.52.09.22.84.43,1.71.57,2.59-.26-.41-.24-1.01-.36-1.48,0-.01-.11-.07-.14-.16-.11-.41-.15-.72-.32-1.18-.08-.22-.17-.32-.23-.45-.05-.11-.09-.21-.14-.32-.21-.46-.42-.91-.59-1.36.28-.14.53-.35.8-.5,0,0,.04.06.07.05Z" fill="#002a40"/>
        <path d="M82.83,63.39s.22.07.27.2c.08.21-.1.48.09.64l-.11.11-1.02.07c.29.16,1.49.16,1.66.3.13.1-.1.6-.16.77l-2-1.11c.37.02.54-.23.93-.16.1-.49-.28-.49-.66-.52l1-.3Z" fill="#1d4a4c"/>
        <path d="M84.69,62.48c-.04.08-.23.26-.23.39,0,.12.33.63.55.48.04.12.14.24.18.36.17.46.37.97.45,1.46-.11-.03-.2-.03-.27-.05,0,0-.13-.09-.14-.09.2-.31-.17-.64-.36-.98s-.29-.4-.41-.84c0,0,.02.02,0-.09,0-.02-.12-.2-.09-.32,0-.03.25-.51.27-.55.05-.08.16-.2.23-.27-.04.15-.12.37-.18.5Z" fill="#7baab9"/>
        <path d="M83.92,62.48c.06.23.22.32.45.32-.03.11.09.3.09.32-.21-.05-.27,0-.41.05-.33.09-.61.32-.91.09-.02-.05-.25-.38-.27-.41.32-.2.7-.25,1.05-.36Z" fill="#9bb9c6"/>
        <path d="M75.28,58.52c0,.58-.59,1.32-.86,1.82-.06-.08-.24-.19-.32-.27,0,0,0-.04,0-.05.34-.46.63-.95.91-1.46.02-.04.15-.16.18-.23.1.03.09.1.09.18Z" fill="#063241"/>
        <path d="M85.06,61.84c.17.46.21.77.32,1.18l-.14.34c.17.21,0,.16-.05.34-.04-.12-.14-.24-.18-.36-.1-.28-.15-.61-.32-.86.06-.13.14-.35.18-.5.03-.03.06-.06.09-.09.02-.02,0-.07.09-.05Z" fill="#507780"/>
        <path d="M84.65,62.25s-.27.52-.27.55c-.24,0-.4-.09-.45-.32.22-.07.46-.27.73-.23Z" fill="#7baab9"/>
        <path d="M85.06,61.84c-.08-.02-.07.02-.09.05l-1.09.07c.38-.08.78-.16.96-.57.05.13.14.23.23.45Z" fill="#1d4a4c"/>
        <path d="M85.33,67.98c-.2.31-.41.6-.61.91-.05.08-.11.06-.02.18-.08-.07-.34-.23-.5-.36-.14-.11-.85-.8-.91-.82,0-.05.08-.12.09-.14.23.18.44.38.68.55.13.09.2.2.36.27.02,0,.15.09.16.09l.8-1.23s.01.42-.2.45l.16.09Z" fill="#3c8ca4"/>
        <path d="M86.78,65.52l-.86,1.5c.04-.15.04-.19-.09-.27.07-.15.16-.3.23-.45.24-.16.44-.89.71-.86.04,0,.02.09.02.09Z" fill="#216e7c"/>
        <path d="M85.92,67.03c-.08.31-.42.68-.59.96l-.16-.09c.22-.04.19-.41.2-.45.1-.24.25-.41.36-.64,0,0,.09-.04.09-.05.13.08.13.13.09.27Z" fill="#216e7c"/>
        <path d="M84.01,69.21c.06.05.14.15.23.23-.25.32-.17.71-.32,1.09-.38.28-.8.53-1.14.86,0-.02-.14-.23-.18-.32-.01-.3.95-1,.96-1.07,0-.01-.09-.08-.09-.09.02-.17.07-.39.05-.55-.04-.24-.23-.32-.18-.57.17.16.57.32.68.41Z" fill="#7baab9"/>
        <path d="M83.24,67.89s.03,0,.05,0c.06.01.77.7.91.82l-.18.5c-.11-.09-.51-.25-.68-.41s-.48-.55-.55-.77c.12-.03.35-.14.45-.14Z" fill="#7baab9"/>
        <path d="M85.37,63.02c.02.09.13.15.14.16.12.47.1,1.07.36,1.48.03.18.02.38.09.55-.08-.02-.21-.02-.32-.05-.09-.48-.28-.99-.45-1.46.04-.18.21-.13.05-.34l.14-.34Z" fill="#5d8390"/>
        <path d="M85.24,65.02s.13.09.14.09c-.21.51.1.4.16.45.17.15-.08.42.39.55-.08.19-.21.47-.18.68-.11.23-.26.4-.36.64l-.8,1.23s-.14-.08-.16-.09c.16-.19.23-.43.36-.64,0,0,.13-.08.14-.09.11-.19.42-.81.45-1.07.06-.54.12-.89-.5-.91l.07-.39-.66-.23c.03-.13.07-.27.09-.41.29.09.58.11.86.18Z" fill="#53a0ae"/>
        <path d="M86.06,66.3c-.07.15-.15.31-.23.45,0,0-.09.04-.09.05-.03-.21.1-.49.18-.68,0-.02.09-.13.11-.18.04-.07-.09-.04-.07-.07.01-.02.33-.32.36-.18.02.08-.16.17-.18.23-.03.09-.07.34-.09.39Z" fill="#7baab9"/>
        <path d="M82.42,67.89s-.21.29-.16.32c.18-.03.35-.13.52-.18.07.22.37.61.55.77-.04.25.15.33.18.57.02.16-.03.38-.05.55,0,.01.09.08.09.09,0,.07-.97.77-.96,1.07-.2-.42-.51-.93-.77-1.32.01-.01.11.03.09-.07-.09-.23-.76-1.24-.73-1.41.01-.06.71-.7.82-.8l.41.41Z" fill="#bcdfe6"/>
        <path d="M84.92,67.84c-.2.03-.05-.15-.11-.18l-.48.07.23.2c-.23.05-.35.19-.5.36-.24-.17-.45-.36-.68-.55.34-.68.72-1.76.91-2.5l.66.23-.07.39c.62.02.56.37.5.91-.03.26-.34.88-.45,1.07Z" fill="#92d5df"/>
        <path d="M84.46,63.2c.12.44.23.52.41.84.19.34.57.66.36.98-.29-.07-.58-.09-.86-.18-.15-.05-1.02-.35-1.05-.43-.12-.34.12-.58-.18-1.16.3.23.58,0,.91-.09l.07.23.34-.18Z" fill="#bcdfe6"/>
        <path d="M83.24,67.89c-.1,0-.34.1-.45.14-.18.05-.34.15-.52.18-.05-.03.14-.28.16-.32.09-.17.23-.33.32-.5.18.16.36.31.5.5Z" fill="#5d8390"/>
        <path d="M82.74,67.39c-.09.17-.23.33-.32.5l-.41-.41c.15-.13.29-.28.43-.41.04,0,.25.28.3.32Z" fill="#71939f"/>
        <path d="M85.01,63.34c-.21.15-.54-.36-.55-.48,0-.13.19-.31.23-.39.17.26.21.58.32.86Z" fill="#7baab9"/>
        <path d="M84.46,63.11c.02.11,0,.09,0,.09l-.34.18-.07-.23c.14-.04.19-.09.41-.05Z" fill="#fff"/>
        <path d="M84.78,67.94c-.13.21-.21.45-.36.64-.17-.07-.24-.18-.36-.27.15-.17.27-.32.5-.36.07-.01.16,0,.23,0Z" fill="#92d5df"/>
        <path d="M84.92,67.84s-.13.08-.14.09c-.07,0-.16-.01-.23,0l-.23-.2.48-.07c.06.03-.09.22.11.18Z" fill="#bcdfe6"/>
        <g>
          <path d="M82.87,62.84s.25.36.27.41c.3.58.06.82.18,1.16.03.08.9.39,1.05.43-.02.14-.06.28-.09.41-.19.74-.57,1.82-.91,2.5,0,.01-.09.09-.09.14-.01,0-.03,0-.05,0-.14-.19-.32-.34-.5-.5-.05-.04-.26-.32-.3-.32-.15.13-.29.28-.43.41-.11.09-.81.74-.82.8-.03.17.64,1.18.73,1.41.02.1-.08.06-.09.07-.54.44-2.55.74-3.28.96,0-.01-.07-.23-.09-.27-.02-.07.05-.15-.07-.23-.01,0-.18.01-.25,0,.16-.29-.05-1.31.02-1.5.05-.13,2.18-1.42,2.32-1.41.15,0,.3.5.41.55.17.07.91-.42,1.09-.55.45-.3.21-.53.77-.05.1-.02.73-1.57.8-1.77.06-.17.29-.67.16-.77-.17-.13-1.37-.14-1.66-.3l1.02-.07.11-.11c-.19-.16-.01-.43-.09-.64-.05-.14-.22-.17-.27-.2-.05-.04-.14-.16-.23-.2.45-.05.01-.23.05-.5.06,0,.19.12.23.16Z" fill="#002a40"/>
          <path d="M78.46,68.85c.04.08.13.08.14.09.06.14.02.84.07.86.41-.54.3-.18.45-.14.08.03.84-.06.84-.2,0-.03-.45-.25-.48-.25-.19-.02-.2.29-.48.11-.02-.02.03-.23.05-.27.03-.08.46-.47.18-.43.15-.1.38-.24.27-.41.36-.2.67-.47,1.02-.68l1.18,2.14-3.09.86c-.08-.03-.17-1.51-.16-1.68Z" fill="#78b6bd"/>
          <path d="M79.23,68.62c-.19.13-.45.17-.64.32,0,0-.1,0-.14-.09,0,0-.08-.02-.05-.11.06-.19.91-.43,1.09-.52.11.17-.12.31-.27.41Z" fill="#7baab9"/>
          <path d="M78.6,68.94c.19-.15.44-.19.64-.32.27-.04-.15.35-.18.43-.02.04-.06.25-.05.27.28.18.29-.13.48-.11.03,0,.48.22.48.25,0,.14-.76.23-.84.2-.15-.05-.05-.41-.45.14-.04-.03-.01-.72-.07-.86Z" fill="#bcdfe6"/>
        </g>
      </g>
    </g>
  </g>
</svg>