<?xml version="1.0" encoding="UTF-8"?>
<svg id="a" data-name="Layer 1" xmlns="http://www.w3.org/2000/svg" width="456" height="635.994" viewBox="0 0 456 635.994">
  <g>
    <g>
      <path d="M433.264,70.417c-89.897-89.897-235.649-89.897-325.546,0-89.897,89.897-89.897,235.649,0,325.546L368.155,135.526l65.109-65.109"/>
      <path d="M109.938,72.637c-87.8,87.812-88.789,229.862-2.22,318.887L428.825,70.417c-89.025-86.569-231.075-85.58-318.887,2.22" fill="#32bbed"/>
      <path d="M368.155,135.526L42.609,461.072c89.897,89.897,235.649,89.897,325.546,0,89.897-89.897,89.897-235.649,0-325.546"/>
      <path d="M365.935,458.853c87.799-87.812,88.788-229.862,2.22-318.887L47.048,461.073c89.025,86.569,231.075,85.58,318.887-2.22" fill="#eaa032"/>
      <polyline points="185.002 294.13 181.226 299.247 177.388 304.317 173.489 309.339 169.528 314.313 165.506 319.237 161.424 324.11 157.283 328.934 153.082 333.707 148.822 338.428 144.504 343.097 140.128 347.714 135.694 352.277 131.192 356.798 59.284 428.706 55.334 432.712 51.456 436.815 47.666 440.998 43.965 445.259 40.355 449.598 36.837 454.012 33.412 458.5 30.09 463.048 3 500.975 40.927 473.884 45.474 470.563 49.963 467.138 54.377 463.619 58.715 460.009 62.976 456.309 67.16 452.519 71.262 448.64 75.269 444.69 147.176 372.783 151.697 368.281 156.261 363.847 160.877 359.471 165.546 355.152 170.268 350.893 175.04 346.692 179.864 342.55 184.738 338.468 189.662 334.447 194.635 330.486 199.657 326.586 204.727 322.748 209.845 318.972 213.071 316.653 199.627 333.682 233.942 312.833 239.439 309.227 244.643 305.488 246.819 303.81 249.417 301.706 252.186 299.322 254.972 296.748 256.737 294.99 259.87 291.647 262.843 288.077 265.548 284.362 266.847 282.363 268.054 280.346 269.345 277.958 270.544 275.426 271.576 272.823 272.352 270.281 274.975 272.854 280.611 266.706 281.742 267.649 286.781 263.949 287.66 263.387 289.797 262.263 300.048 258.024 296.819 267.187 296.217 268.652 295.53 270.116 294.762 271.58 293.944 272.994 292.001 275.96 289.836 278.85 287.452 281.709 284.894 284.53 282.224 287.29 276.611 292.742 271.293 297.77 233.806 327.995 220.513 338.909 236.461 332.668 263.995 322.475 269.751 320.232 281.095 315.565 292.348 310.649 303.498 305.533 314.56 300.261 325.539 294.878 349.66 283.006 370.045 212.75 372.908 210.203 377.094 206.337 381.206 202.393 385.239 198.372 389.192 194.275 393.06 190.103 396.84 185.857 400.528 181.537 404.121 177.144 407.616 172.68 411.009 168.144 414.296 163.537 417.473 158.861 420.538 154.116 423.487 149.304 426.316 144.424 429.022 139.478 431.6 134.466 434.047 129.391 436.361 124.251 438.535 119.049 440.568 113.786 442.456 108.461 444.194 103.078 445.78 97.636 447.209 92.137 448.477 86.582 449.582 80.971 450.519 75.308 451.284 69.592 451.875 63.826 452.389 57.188 452.741 50.68 443.423 51.544 434.09 52.398 428.374 53.163 422.71 54.1 417.1 55.205 411.545 56.473 406.046 57.902 400.604 59.487 395.22 61.226 389.896 63.114 384.633 65.147 379.431 67.321 374.291 69.634 369.215 72.082 364.204 74.66 359.258 77.366 354.378 80.195 349.565 83.144 344.821 86.209 340.145 89.386 335.538 92.673 331.002 96.066 326.537 99.56 322.145 103.153 317.825 106.842 313.578 110.622 309.407 114.49 305.31 118.442 301.289 122.476 297.345 126.588 293.479 130.774 290.932 133.636 220.7 154.007 208.805 178.142 203.421 189.121 198.149 200.183 193.033 211.334 188.116 222.586 183.45 233.931 181.207 239.687 165.273 282.731 165.307 282.75 205.912 232.389 210.94 227.071 216.392 221.458 219.152 218.788 221.973 216.23 224.831 213.846 227.722 211.681 230.688 209.738 232.102 208.92 233.566 208.152 235.03 207.465 236.495 206.862 245.658 203.634 241.419 213.885 240.295 216.022 239.733 216.9 236.033 221.94 236.976 223.071 230.828 228.707 233.689 231.624 231.152 232.398 228.549 233.43 226.017 234.63 223.577 235.948 219.659 238.393 215.898 241.131 212.327 244.104 208.984 247.238 207.226 249.004 204.594 251.855 202.268 254.558 200.165 257.156 198.487 259.332 194.748 264.536 191.141 270.032 170.293 304.347 187.322 290.904 185.002 294.13" fill="#f0efef"/>
      <path d="M222.904,156.636l69.771-20.237,3.129-3.516,3.827-4.143,3.902-4.069,3.978-3.991,4.052-3.91,4.125-3.825,4.198-3.737,4.27-3.646,4.341-3.551,4.411-3.453,4.48-3.351,4.549-3.246,4.616-3.137,4.683-3.025,4.748-2.909,4.813-2.79,4.877-2.667,4.94-2.542,5.002-2.412,5.063-2.279,5.123-2.142,5.183-2.002,5.241-1.858,5.298-1.711,5.354-1.56,5.409-1.406,5.464-1.247,5.517-1.086,5.569-.921,5.62-.753,7.768-.796,7.179-.443-.374,5.273-.865,9.674-.753,5.62-.921,5.569-1.086,5.517-1.248,5.464-1.406,5.41-1.56,5.354-1.711,5.298-1.858,5.241-2.002,5.182-2.142,5.123-2.279,5.063-2.412,5.002-2.541,4.94-2.667,4.877-2.79,4.813-2.909,4.748-3.025,4.683-3.137,4.616-3.246,4.548-3.351,4.48-3.452,4.411-3.551,4.341-3.646,4.27-3.737,4.198-3.825,4.126-3.91,4.052-3.991,3.978-4.069,3.903-4.143,3.827-3.517,3.129-20.251,69.795-22.877,11.259-10.961,5.374-11.025,5.255-11.104,5.094-11.195,4.892-11.286,4.643-5.703,2.223-25.008,9.257-.019-.034,35.506-28.629,5.423-5.127,5.664-5.501,2.739-2.831,2.636-2.907,2.478-2.972,2.274-3.035,2.044-3.122.894-1.545.83-1.583.749-1.596.662-1.61,5.592-15.87-16.881,6.98-2.384,1.254-1.076.689-3.14,2.305-1.545-1.287-5.465,5.961-4.868-4.775.032.416-.019,1.353-.128,1.384-.494,2.554-.767,2.514-.947,2.39-1.12,2.364-1.218,2.254-1.142,1.908-1.223,1.881-2.595,3.565-2.848,3.421-3.034,3.236-1.685,1.679-2.703,2.497-2.691,2.317-2.532,2.05-2.105,1.623-5.107,3.67-5.396,3.54-19.38,11.775,13.994-17.726,1.177-1.543.512-.627-1.992,1.39-2.852,1.97c-28.331,19.075-54.713,40.894-78.766,65.143l-71.902,71.902c-10.491,10.563-21.854,20.223-33.968,28.877l-22.588,16.134,16.134-22.588c8.653-12.115,18.313-23.477,28.877-33.968l71.902-71.902c24.248-24.052,46.068-50.435,65.143-78.765l1.97-2.852,1.39-1.991-.627.512-1.543,1.177-17.726,13.994,11.775-19.38,3.54-5.396,3.67-5.107,1.623-2.105,2.05-2.532,2.26-2.626,2.554-2.767,1.679-1.686,3.236-3.034,3.421-2.848,3.589-2.613,3.74-2.333,2.28-1.232,2.364-1.12,2.39-.947,2.514-.767,2.554-.494,1.384-.128,1.352-.019.411.031-5.062-5.16,5.962-5.465-1.287-1.545,2.305-3.14.689-1.076,1.254-2.384,6.98-16.881-15.87,5.592-1.61.663-1.596.749-1.583.83-1.545.894-3.122,2.045-3.035,2.274-2.972,2.478-2.907,2.636-2.832,2.739-5.501,5.664-5.127,5.423-28.705,35.601,9.299-25.121,2.223-5.703,4.643-11.286,4.892-11.195,5.094-11.104,5.255-11.025,5.375-10.96,11.282-22.891"/>
      <polyline points="260.198 249.565 274.735 263.824 280.029 258.049 281.987 259.681 283.227 258.77 284.5 257.955 287.131 256.571 310.642 246.85 302.687 269.426 301.965 271.181 301.154 272.909 300.261 274.611 299.291 276.287 297.145 279.565 294.762 282.745 292.191 285.83 289.477 288.822 286.668 291.726 280.954 297.275 275.426 302.501 254.68 319.229 261.765 316.606 267.416 314.404 278.644 309.785 289.782 304.919 300.839 299.846 311.828 294.608 322.759 289.249 344.431 278.538 364.52 209.263 368.691 205.552 372.791 201.765 376.816 197.904 380.764 193.969 384.631 189.961 388.413 185.882 392.107 181.731 395.711 177.511 399.219 173.221 402.63 168.865 405.939 164.44 409.144 159.949 412.24 155.393 415.224 150.773 418.094 146.089 420.846 141.343 423.475 136.535 425.98 131.667 428.356 126.738 430.601 121.751 432.71 116.707 434.681 111.605 436.509 106.447 438.192 101.235 439.727 95.968 441.109 90.648 442.336 85.276 443.403 79.852 444.309 74.378 445.049 68.855 445.747 62.03 446.018 57.664 446.017 57.664 440.398 58.063 434.827 58.633 429.303 59.373 423.829 60.279 418.406 61.346 413.034 62.573 407.714 63.955 402.447 65.49 397.234 67.173 392.077 69.001 386.975 70.972 381.93 73.081 376.943 75.326 372.015 77.702 367.147 80.206 362.339 82.836 357.593 85.588 352.909 88.457 348.289 91.442 343.733 94.538 339.242 97.743 334.817 101.052 330.46 104.462 326.171 107.971 321.95 111.574 317.8 115.269 313.72 119.051 309.713 122.918 305.778 126.865 301.917 130.891 298.13 134.991 294.419 139.162 225.143 159.251 214.433 180.923 209.074 191.854 203.836 202.843 198.763 213.9 193.897 225.038 189.278 236.265 187.075 241.917 184.452 249.002 201.18 228.255 206.407 222.727 211.956 217.014 214.859 214.205 217.852 211.491 220.937 208.92 224.116 206.537 227.394 204.391 229.071 203.421 230.773 202.528 232.501 201.717 234.256 200.995 256.832 193.04 247.11 216.551 245.727 219.182 244.912 220.454 244.001 221.695 245.632 223.653 239.857 228.947 254.117 243.483 260.198 249.565" fill="#9ca3af"/>
      <path d="M226.734,241.378l2.141-1.157.102-.05c5.345-2.704,12.337-4.892,16.751-.865l.171.162c.528.52,1.027,1.139,1.503,1.858-6.724-1.685-14.657,1.363-20.756,5.872l-.068.046-.412.318-.713.54-.115.097c-2.412,1.889-4.446,3.966-5.855,5.956-.113.16-1.624,2.501-.346,2.418,5.077-3.489,11.801-5.591,17.957-5.525-2.353,1.433-4.579,3.076-6.66,4.912l-.929.768-2.598,2.458-2.464,2.641-2.327,2.804-2.187,2.947-2.044,3.07-1.899,3.174-1.75,3.258-1.6,3.321-1.446,3.365-.46,1.211c-1.632,3.989-2.968,8.033-4.026,11.999l.386-.093-.093.386c3.965-1.058,8.01-2.393,11.999-4.026l1.211-.461,3.366-1.446,3.321-1.6,3.257-1.75,3.174-1.898,3.07-2.044,2.947-2.187,2.804-2.326,2.641-2.464,2.458-2.598.768-.929c1.836-2.081,3.479-4.306,4.912-6.66.066,6.156-2.036,12.88-5.525,17.957-.083,1.279,2.258-.232,2.418-.346,1.99-1.409,4.068-3.444,5.956-5.855l.097-.115.54-.713.318-.412.046-.068c4.509-6.099,7.557-14.031,5.872-20.756.719.476,1.338.975,1.858,1.503l.162.171c4.027,4.414,1.839,11.406-.865,16.75l-.05.102-1.157,2.141c-2.774,4.846-6.327,9.299-10.366,13.378l-1.612,1.605-.304.285-2.315,2.135-.032.027-2.582,2.222-.178.147-2.283,1.846-1.115.866-.911.697-5.014,3.603-5.295,3.473-4.445,2.701,3.216-4.073,1.162-1.523.768-.94,1.869-2.516,1.685-2.616.767-1.463c1.112-1.903,2.082-3.891,2.866-5.989l.343-1.836-.741.748c-4.046,4.083-8.518,7.684-13.291,10.852l-2.83,1.955c-28.494,19.187-55.029,41.133-79.221,65.521l-71.902,71.902c-10.367,10.44-21.597,19.986-33.569,28.538l-7.262,5.187,5.187-7.262c8.552-11.972,18.099-23.202,28.538-33.569l71.902-71.902c24.388-24.192,46.335-50.727,65.521-79.221l1.955-2.83c3.168-4.773,6.768-9.245,10.851-13.291l.743-.75-1.831.352c-2.098.784-4.086,1.754-5.989,2.866l-1.462.768-2.616,1.685-2.516,1.869-.94.768-1.523,1.162-4.073,3.216,2.701-4.446,3.473-5.295,3.603-5.014.697-.911.866-1.115,1.846-2.283.147-.178,2.222-2.583.027-.031,2.135-2.315.285-.304,1.605-1.612c4.079-4.039,8.532-7.592,13.378-10.366" fill="#d0d0cf"/>
      <polyline points="256.387 256.988 255.985 269.441 255.687 272.045 255.335 273.872 255.732 273.291 257.048 271.004 258.16 268.644 259.031 266.259 259.643 263.846 259.827 262.727 259.941 261.588 259.977 260.477 259.933 259.396 259.808 258.35 259.057 254.689 256.387 256.988" fill="#f58320"/>
      <polyline points="229.135 261.399 226.8 263.901 224.586 266.57 222.499 269.384 220.541 272.325 218.718 275.372 217.035 278.505 215.495 281.702 214.102 284.945 213.66 286.105 212.505 289.069 211.48 291.981 211.268 292.65 211.343 292.632 211.325 292.707 211.993 292.494 214.906 291.469 217.869 290.315 219.03 289.873 222.272 288.48 225.47 286.94 228.603 285.256 231.65 283.433 234.59 281.476 237.405 279.388 240.073 277.174 242.576 274.839 244.894 272.389 245.605 271.528 246.912 269.98 248.095 268.449 249.206 266.871 254.482 258.628 254.09 258.966 250.311 262.081 246.445 265.088 242.485 267.949 222.47 281.212 235.733 261.197 238.594 257.237 241.601 253.371 244.186 250.236 237.104 254.768 235.526 255.88 233.994 257.062 232.446 258.37 231.585 259.081 229.135 261.399" fill="#f58320"/>
      <polyline points="230.102 248.639 231.929 248.288 234.534 247.99 246.426 247.606 248.822 244.822 245.625 244.167 244.578 244.042 243.498 243.998 242.386 244.033 241.247 244.147 240.129 244.331 237.716 244.943 235.33 245.815 232.97 246.927 230.683 248.243 230.102 248.639" fill="#f58320"/>
      <polyline points="257.813 251.619 252.067 256.565 248.348 259.631 244.562 262.576 240.698 265.367 233.632 270.05 238.314 262.983 241.106 259.12 244.051 255.334 247.116 251.615 252.063 245.869 257.813 251.619" fill="#eaa032"/>
      <polyline points="377.909 82.167 377.419 82.281 375.32 83.273 369.847 86.059 364.511 88.977 359.3 92.03 354.201 95.22 349.2 98.549 344.287 102.021 339.45 105.637 334.674 109.401 329.95 113.315 325.264 117.382 320.604 121.603 315.961 125.983 311.691 130.159 306.63 135.352 301.431 140.949 296.434 146.596 291.665 152.265 287.147 157.925 282.906 163.547 278.979 169.084 276.872 172.349 273.45 177.911 269.244 184.962 264.773 192.709 260.547 200.375 258.841 203.639 256.616 209.007 255.193 212.884 291.188 248.879 295.065 247.456 300.433 245.231 303.696 243.524 311.363 239.299 319.11 234.828 326.161 230.622 331.723 227.2 334.988 225.093 340.525 221.166 346.147 216.925 351.807 212.407 357.476 207.638 363.124 202.641 368.72 197.442 373.912 192.381 378.089 188.111 382.468 183.467 386.69 178.808 390.757 174.123 394.671 169.398 398.435 164.623 402.051 159.785 405.523 154.871 408.852 149.871 412.042 144.772 415.094 139.56 418.013 134.225 420.798 128.752 421.839 126.551 422.057 125.181 422.119 124.252 422.088 123.403 421.959 122.558 421.628 121.205 421.473 120.687 419.242 115.596 417.769 112.757 416.05 109.871 414.107 106.973 411.961 104.095 409.633 101.267 407.152 98.526 405.546 96.921 402.805 94.439 399.977 92.111 397.099 89.965 394.201 88.022 391.315 86.303 388.476 84.83 383.385 82.599 382.867 82.444 381.514 82.113 380.669 81.984 379.821 81.953 378.899 82.014 377.909 82.167"/>
      <polyline points="378.507 85.251 378.457 85.263 376.702 86.092 371.313 88.836 366.058 91.709 360.926 94.715 355.903 97.857 350.976 101.138 346.133 104.56 341.361 108.127 336.647 111.842 331.98 115.709 327.346 119.73 322.735 123.909 318.135 128.247 313.913 132.377 308.904 137.517 303.757 143.057 298.811 148.647 294.093 154.254 289.627 159.849 285.44 165.401 281.579 170.844 279.528 174.023 276.135 179.538 271.952 186.551 267.508 194.251 263.313 201.861 261.687 204.97 259.541 210.149 258.831 212.083 291.989 245.241 293.923 244.531 299.103 242.385 302.211 240.759 309.821 236.565 317.522 232.121 324.534 227.937 330.049 224.544 333.228 222.493 338.671 218.632 344.222 214.445 349.818 209.979 355.425 205.261 361.015 200.315 366.556 195.168 371.695 190.159 375.825 185.937 380.164 181.337 384.342 176.725 388.363 172.092 392.229 167.425 395.945 162.711 399.512 157.939 402.934 153.096 406.214 148.169 409.356 143.146 412.363 138.014 415.236 132.76 417.98 127.37 418.809 125.615 418.935 124.829 418.976 124.205 418.958 123.697 418.877 123.17 418.597 122.027 418.52 121.769 416.408 116.951 415.025 114.284 413.396 111.55 411.544 108.787 409.49 106.032 407.257 103.319 404.877 100.691 403.381 99.195 400.753 96.815 398.04 94.582 395.285 92.528 392.523 90.676 389.788 89.047 387.121 87.664 382.302 85.552 382.045 85.475 380.902 85.195 380.374 85.114 379.867 85.096 379.243 85.137 378.507 85.251" fill="#9ca3af"/>
      <polyline points="319.502 282.688 308.64 288.014 297.736 293.211 279.403 301.621 276.804 304.079 266.841 312.112 266.121 312.673 277.827 307.859 288.926 303.009 299.952 297.95 310.917 292.724 321.828 287.374 342.679 277.046 363.564 205.045 358.844 209.222 356.271 211.387 338.324 273.305 319.502 282.688" fill="#7f7f7f"/>
      <polyline points="357.188 211.983 359.527 210.014 361.554 208.221 341.801 276.302 321.363 286.437 310.462 291.782 299.509 297.002 288.499 302.054 277.418 306.895 272.437 308.944 277.493 304.867 279.997 302.5 288.693 298.511 298.179 294.158 309.095 288.956 319.968 283.625 339.188 274.063 357.188 211.983" fill="#d0d0cf"/>
      <polyline points="438.012 65.669 443.76 59.922 443.534 63.103 442.97 68.61 442.239 74.069 441.344 79.48 440.289 84.841 439.076 90.152 437.709 95.412 436.192 100.621 434.527 105.776 432.718 110.878 430.768 115.926 428.681 120.918 426.459 125.854 422.778 133.491 423.21 131.239 423.576 128.947 424.139 125.415 424.214 124.283 424.175 123.206 424.014 122.15 423.648 120.657 423.415 119.873 423.881 118.835 425.914 113.974 427.811 109.061 429.571 104.098 431.19 99.085 432.665 94.023 433.993 88.912 435.171 83.753 436.195 78.547 437.064 73.294 437.774 67.996 438.012 65.669" fill="#7f7f7f"/>
      <polyline points="439.015 66.146 438.813 68.119 438.099 73.449 437.225 78.734 436.194 83.97 435.009 89.16 433.674 94.3 432.19 99.392 430.562 104.434 428.792 109.425 426.884 114.365 424.841 119.252 424.528 119.947 424.658 120.382 425.041 121.946 425.218 123.108 425.262 124.298 425.18 125.532 425.045 126.378 425.511 125.412 427.721 120.502 429.797 115.536 431.736 110.515 433.536 105.441 435.191 100.314 436.7 95.134 438.059 89.904 439.265 84.623 440.314 79.293 441.204 73.914 441.931 68.487 442.492 63.012 442.518 62.643 439.015 66.146" fill="#d0d0cf"/>
      <polyline points="295.502 234.749 287.693 237.985 292.545 242.837 298.215 240.488 301.221 238.915 308.793 234.742 316.463 230.316 323.45 226.147 328.933 222.773 332.055 220.76 337.436 216.943 342.939 212.792 348.491 208.361 354.058 203.676 359.609 198.765 365.113 193.652 370.216 188.678 374.316 184.487 378.627 179.916 382.776 175.337 386.767 170.739 390.602 166.109 394.285 161.436 397.819 156.708 401.209 151.912 404.456 147.034 407.566 142.062 410.541 136.983 413.386 131.783 416.101 126.448 416.79 124.99 416.853 124.595 416.881 124.174 416.871 123.894 416.822 123.577 416.562 122.515 413.858 116.346 410.416 123.634 407.785 128.803 405.029 133.84 402.146 138.761 399.132 143.581 395.983 148.312 392.692 152.968 389.255 157.565 385.669 162.115 381.929 166.631 378.029 171.124 373.967 175.607 369.739 180.091 365.731 184.187 360.735 189.056 355.342 194.067 349.907 198.876 344.461 203.458 339.04 207.785 333.678 211.829 328.485 215.513 325.535 217.415 320.146 220.732 313.234 224.855 305.657 229.228 298.199 233.338 295.502 234.749" fill="#7f7f7f"/>
      <polyline points="289.54 238.352 295.945 235.698 298.694 234.26 306.171 230.139 313.764 225.757 320.688 221.626 326.093 218.301 329.072 216.379 334.296 212.674 339.681 208.611 345.125 204.267 350.59 199.668 356.045 194.842 361.457 189.815 366.47 184.928 370.493 180.816 374.736 176.317 378.812 171.818 382.727 167.307 386.483 162.773 390.085 158.203 393.538 153.584 396.845 148.904 400.011 144.148 403.042 139.303 405.94 134.356 408.71 129.291 411.356 124.095 412.764 121.114 413.823 118.871 415.568 122.852 415.795 123.781 415.827 123.992 415.833 124.158 415.812 124.477 415.78 124.678 415.162 125.987 412.46 131.294 409.631 136.467 406.671 141.52 403.577 146.466 400.346 151.32 396.973 156.093 393.455 160.799 389.788 165.451 385.968 170.062 381.993 174.643 377.859 179.206 373.561 183.762 369.477 187.937 364.391 192.894 358.906 197.99 353.375 202.884 347.828 207.551 342.298 211.965 336.818 216.099 331.468 219.893 328.375 221.888 322.908 225.252 315.933 229.413 308.279 233.83 300.726 237.993 297.772 239.539 292.79 241.603 289.54 238.352" fill="#d0d0cf"/>
      <path d="M361.47,116.816c-6.984,6.984-6.984,18.308,0,25.292,6.984,6.984,18.308,6.984,25.293,0s6.984-18.308,0-25.292c-6.984-6.984-18.308-6.984-25.292,0"/>
      <path d="M362.852,118.197c-6.222,6.222-6.221,16.309,0,22.53s16.308,6.222,22.53,0c6.221-6.221,6.222-16.308,0-22.53-6.221-6.221-16.309-6.221-22.53,0" fill="#d0d0cf"/>
      <path d="M381.451,118.44c1.181.971,2.133,2.186,2.833,3.541-5.995-4.596-12.644-4.6-19.36-1.652,3.107-4.653,12.332-5.338,16.527-1.889"/>
    </g>
    <g>
      <g>
        <path d="M37.415,584.381h-20.555l-1.762,10.043H3l3.524-20.085h33.828c4.228,0,6.812-2.172,6.812-5.228,0-2.29-1.82-3.758-5.227-3.758H8.109l9.866-10.218h24.666c10.924,0,16.914,5.11,16.914,12.627,0,9.749-8.516,16.62-22.141,16.62"/>
        <path d="M116.869,594.423h-16.267l-6.93-10.395h-18.676l-1.82,10.395h-12.157l3.524-20.085h34.18c4.052,0,7.576-1.938,7.576-5.11,0-2.583-2.232-3.876-5.99-3.876h-34.18l9.749-10.218h25.253c8.222,0,17.971,2.525,17.971,11.921,0,7.107-5.109,13.098-12.685,14.565,1.116.998,2.349,2.407,4.522,5.169l5.932,7.634"/>
        <polyline points="168.662 584.323 159.03 594.423 121.21 594.423 128.198 555.134 173.654 555.134 163.964 565.352 138.534 565.352 137.712 570.05 168.78 570.05 160.323 578.978 136.127 578.978 135.187 584.323 168.662 584.323"/>
        <polyline points="221.983 555.134 212.351 565.352 188.331 565.352 187.45 570.462 217.049 570.462 208.005 580.035 185.747 580.035 183.222 594.423 171.007 594.423 177.995 555.134 221.983 555.134"/>
        <polyline points="263.558 584.323 253.868 594.423 219.159 594.423 226.148 555.134 238.245 555.134 233.078 584.323 263.558 584.323"/>
        <polyline points="278.118 594.423 265.962 594.423 272.95 555.134 285.048 555.134 278.118 594.423"/>
        <path d="M314.293,569.875h25.136l-4.345,24.549h-26.957c-12.274,0-20.438-7.401-20.438-17.325,0-12.919,12.333-21.964,27.367-21.964h28.131l-9.69,10.218h-20.261c-7.225,0-13.39,4.64-13.39,10.924,0,4.875,3.993,8.047,10.043,8.047h14.916l.999-5.699h-20.379l8.868-8.75"/>
        <polyline points="389.754 594.423 377.655 594.423 380.356 579.272 356.924 579.272 354.281 594.423 342.065 594.423 349.054 555.134 361.212 555.134 358.686 569.052 382.119 569.052 384.585 555.134 396.743 555.134 389.754 594.423"/>
        <polyline points="453 555.134 443.251 565.352 429.272 565.352 424.105 594.423 411.949 594.423 417.057 565.352 398.617 565.352 408.367 555.134 453 555.134"/>
      </g>
      <g>
        <path d="M6.573,591.423l2.471-14.085h31.308c5.777,0,9.812-3.383,9.812-8.228,0-3.364-2.543-6.758-8.226-6.758H15.175l4.074-4.22h23.392c8.713,0,13.914,3.6,13.914,9.628,0,8.273-7.513,13.62-19.141,13.62H14.34l-1.761,10.042h-6.006" fill="#eaa032"/>
        <path d="M102.207,591.423l-6.93-10.394h-22.802l-1.821,10.394h-6.064l2.471-14.085h31.661c6.128,0,10.576-3.41,10.576-8.11,0-1.148-.433-6.876-8.99-6.876h-27.172l4.025-4.22h23.97c4.501,0,14.971.869,14.971,8.923,0,5.762-4.122,10.432-10.256,11.619l-5.937,1.15,4.507,4.033c.961.858,2.129,2.202,4.165,4.787l2.159,2.779h-8.532" fill="#eaa032"/>
        <polyline points="124.79 591.423 130.711 558.133 166.675 558.133 162.674 562.353 136.013 562.353 134.141 573.05 161.805 573.05 159.032 575.979 133.608 575.979 131.613 587.321 161.657 587.321 157.746 591.423 124.79 591.423" fill="#eaa032"/>
      </g>
      <g>
        <polyline points="174.588 591.423 180.508 558.133 215.034 558.133 211.056 562.353 185.805 562.353 183.888 573.461 210.088 573.461 206.713 577.036 183.228 577.036 180.703 591.423 174.588 591.423" fill="#32bbed"/>
        <polyline points="222.74 591.423 228.662 558.133 234.668 558.133 229.501 587.321 256.523 587.321 252.589 591.423 222.74 591.423" fill="#32bbed"/>
        <polyline points="269.543 591.423 275.463 558.133 281.473 558.133 275.601 591.423 269.543 591.423" fill="#32bbed"/>
        <path d="M308.126,591.423c-10.267,0-17.438-5.89-17.438-14.325,0-10.812,10.476-18.965,24.368-18.965h21.152l-4,4.22h-18.972c-9.191,0-16.39,6.116-16.39,13.923,0,6.606,5.242,11.046,13.042,11.046h17.437l2.051-11.696h-16.641l2.788-2.751h20.327l-3.284,18.549h-24.44" fill="#32bbed"/>
        <polyline points="381.238 591.423 383.94 576.272 354.402 576.272 351.76 591.423 345.646 591.423 351.568 558.133 357.619 558.133 355.094 572.052 384.634 572.052 387.102 558.133 393.162 558.133 387.241 591.423 381.238 591.423" fill="#32bbed"/>
        <polyline points="415.522 591.423 420.631 562.353 405.625 562.353 409.651 558.133 445.991 558.133 441.966 562.353 426.76 562.353 421.592 591.423 415.522 591.423" fill="#32bbed"/>
      </g>
    </g>
  </g>
  <g>
    <path d="M446.799,632.995h-9.985c-1.613,0-2.816-.475-3.574-1.411-.798-.986-1.012-2.386-.633-4.163l4.413-20.753c.229-1.114,1.228-1.928,2.374-1.928h4.285c.553.018,1.023.257,1.337.657s.433.914.328,1.412l-.396,1.859h1.629c.563.023,1.03.264,1.339.664s.426.912.321,1.406l-1.106,5.201c-.198.81-.883,1.346-1.673,1.346h-2.345s-1.509,7.094-1.509,7.094h9.507c.568,0,1.103.254,1.464.699.363.447.503,1.025.383,1.588l-.281,1.322c-.686,3.229-2.773,5.007-5.878,5.007Z"/>
    <path d="M412.725,632.995c-1.613,0-2.816-.475-3.574-1.411-.798-.986-1.012-2.386-.633-4.163l2.923-13.746c.686-3.229,2.773-5.007,5.878-5.007h14.84c1.614,0,2.816.475,3.575,1.411.797.986,1.011,2.386.632,4.163l-2.923,13.746c-.686,3.229-2.773,5.007-5.878,5.007h-14.84ZM417.516,624.378h8.345l1.508-7.095h-8.345l-1.508,7.095Z"/>
    <path d="M388.636,632.995c-2.728,0-4.369-1.468-4.39-3.927,0-.495.061-1.033.183-1.607l5.249-24.687c.237-1.114,1.236-1.921,2.374-1.921h15.619c2.768,0,4.368,1.431,4.389,3.927.001.494-.06,1.033-.183,1.609l-2.151,10.121c.821.685,1.267,1.716,1.276,2.989,0,.492-.061,1.029-.183,1.601l-1.548,7.284c-.754,2.992-2.789,4.612-5.742,4.612h-14.893ZM393.427,624.378h8.346l.668-3.147h-8.345l-.669,3.147ZM395.936,612.615h6.277l.669-3.148h-6.277s-.669,3.148-.669,3.148Z"/>
    <path d="M364.546,632.995c-1.613,0-2.814-.475-3.573-1.41-.798-.986-1.012-2.386-.634-4.163l2.924-13.747c.687-3.229,2.774-5.007,5.878-5.007h14.841c1.563,0,2.741.447,3.503,1.327.762.881,1.034,2.11.81,3.655-.005.029-.009.057-.015.085l-1.602,7.607c-.335,1.578-1.201,2.598-2.582,3.046.451.047.863.269,1.153.626.327.404.452.926.344,1.434l-.327,1.54c-.686,3.229-2.774,5.008-5.878,5.008h-14.841Z"/>
    <path d="M355.299,632.995h-14.841c-2.746,0-4.387-1.484-4.39-3.969-.003-.489.059-1.038.184-1.624l.827-3.89c.103-.488.264-.953.475-1.379.331-.704.819-1.337,1.441-1.856.899-.751,2.113-1.344,3.607-1.76l4.363-1.234h-6.443c-.535.016-1.002-.228-1.33-.632-.329-.404-.455-.928-.347-1.437l.326-1.538c.687-3.23,2.774-5.009,5.877-5.009h14.841c2.746,0,4.387,1.484,4.39,3.969.003.486-.058,1.035-.183,1.623l-.828,3.89c-.104.489-.264.954-.476,1.38-.342.718-.826,1.342-1.439,1.855-.899.752-2.113,1.344-3.608,1.761l-4.362,1.234h6.442c.486-.011,1.001.228,1.33.631.329.404.456.927.348,1.436l-.326,1.54c-.686,3.23-2.774,5.008-5.877,5.008Z"/>
    <path d="M316.369,632.995c-1.614,0-2.816-.475-3.574-1.411-.798-.986-1.011-2.386-.633-4.163l2.923-13.746c.686-3.229,2.774-5.007,5.878-5.007h14.841c1.613,0,2.816.475,3.574,1.411.798.986,1.011,2.386.633,4.163l-2.923,13.746c-.686,3.229-2.774,5.007-5.877,5.007h-14.841ZM321.159,624.378h8.346l1.509-7.095h-8.346l-1.509,7.095Z"/>
    <path d="M292.28,632.995c-1.614,0-2.816-.475-3.574-1.411-.798-.986-1.011-2.386-.633-4.163l2.923-13.746c.686-3.229,2.774-5.007,5.878-5.007h14.841c1.613,0,2.816.475,3.574,1.411.798.986,1.011,2.386.633,4.163l-2.923,13.746c-.686,3.229-2.774,5.007-5.878,5.007h-14.84ZM305.415,624.378l1.509-7.095h-8.346l-1.509,7.095h8.346Z"/>
    <path d="M439.394,606.102c-.505,0-.941.355-1.042.85l-4.412,20.753c-.557,2.619.401,3.929,2.875,3.929h9.985c2.473,0,3.989-1.31,4.545-3.929l.281-1.321c.071-.332-.183-.644-.523-.643h-10.747c-.224,0-.39-.206-.343-.425l1.939-9.115c.034-.162.177-.278.343-.278h3.164c.162,0,.303-.11.341-.267l1.106-5.202c.045-.212-.111-.414-.328-.424h-2.878c-.218,0-.384-.197-.346-.412l.658-3.091c.046-.214-.113-.417-.332-.424h-4.284" fill="#32bbed"/>
    <path d="M432.159,610.029h-14.841c-2.473,0-3.989,1.31-4.546,3.929l-2.923,13.746c-.557,2.619.401,3.929,2.875,3.929h14.841c2.473,0,3.989-1.31,4.545-3.929l2.923-13.746c.557-2.619-.401-3.929-2.875-3.929ZM427.023,625.461c-.034.163-.178.279-.344.279h-10.414c-.223,0-.388-.206-.342-.424l1.939-9.115c.034-.163.177-.28.344-.28h10.411c.224,0,.391.205.345.424l-1.939,9.115Z" fill="#32bbed"/>
    <path d="M410.698,604.79c-.015-1.718-1.024-2.577-3.028-2.577h-15.617c-.503-.001-.938.351-1.043.843l-5.249,24.687c-.102.482-.154.919-.153,1.312.015,1.718,1.024,2.577,3.028,2.577h14.894c2.345,0,3.815-1.178,4.41-3.533l1.548-7.285c.102-.48.153-.916.153-1.308-.008-1.132-.448-1.891-1.318-2.279-.076-.034-.118-.116-.1-.198l2.323-10.928c.103-.482.154-.919.153-1.312ZM402.934,625.461c-.034.162-.178.279-.344.279h-10.417c-.221-.003-.385-.208-.339-.424l1.099-5.167c.034-.163.177-.279.344-.279h10.414c.223,0,.388.207.342.424l-1.099,5.168ZM403.376,613.686c-.029.168-.175.291-.346.291h-8.333c-.227.006-.4-.202-.353-.424l1.102-5.181c.039-.156.18-.266.341-.266h8.355c.218.008.377.211.331.424l-1.097,5.156Z" fill="#32bbed"/>
    <path d="M383.982,610.029h-14.841c-2.475,0-3.989,1.31-4.546,3.929l-2.923,13.746c-.556,2.619.401,3.929,2.875,3.929h14.841c2.475,0,3.989-1.31,4.546-3.929l.327-1.54c.047-.219-.121-.425-.345-.424h-15.829c-.21,0-.373-.183-.349-.391l.007-.032.368-1.732.004-.018c.035-.164.18-.28.348-.278h13.771c1.997,0,2.812-.825,3.11-2.229l1.602-7.607c.332-2.283-.656-3.424-2.965-3.424ZM380.462,617.856c-.035.163-.178.279-.345.278h-10.411c-.224,0-.391-.207-.343-.425l.321-1.509c.034-.162.177-.278.342-.278h10.413c.224,0,.39.207.343.425l-.321,1.509Z" fill="#eaa032"/>
    <path d="M361.568,618.933c.164-.328.287-.684.368-1.067l.827-3.89c.105-.494.156-.943.153-1.339-.002-1.738-1.011-2.609-3.028-2.609h-14.841c-2.473,0-3.988,1.31-4.545,3.929l-.326,1.539c-.046.219.121.425.345.424h14.996c.206,0,.244.293.044.345l-12.595,3.562c-1.315.366-2.347.864-3.1,1.493-.477.399-.838.873-1.094,1.417-.162.325-.283.678-.363,1.057l-.827,3.89c-.105.494-.156.943-.153,1.339.002,1.738,1.011,2.609,3.028,2.609h14.841c2.473,0,3.988-1.31,4.545-3.929l.326-1.539c.046-.219-.121-.425-.345-.424h-14.996c-.206,0-.244-.293-.044-.345l12.595-3.562c1.315-.366,2.347-.864,3.1-1.493.474-.396.834-.867,1.089-1.406" fill="#eaa032"/>
    <path d="M335.803,610.029h-14.841c-2.473,0-3.989,1.31-4.546,3.929l-2.923,13.746c-.557,2.619.401,3.929,2.875,3.929h14.841c2.473,0,3.989-1.31,4.546-3.929l2.923-13.746c.557-2.619-.401-3.929-2.875-3.929ZM330.666,625.461c-.034.163-.178.279-.344.279h-10.413c-.223,0-.389-.206-.342-.424l1.939-9.118c.035-.161.178-.277.343-.277h10.411c.224,0,.391.205.345.424l-1.939,9.115Z" fill="#eaa032"/>
    <path d="M311.714,610.029h-14.841c-2.473,0-3.989,1.31-4.546,3.929l-2.923,13.746c-.557,2.619.401,3.929,2.875,3.929h14.841c2.473,0,3.989-1.31,4.546-3.929l2.923-13.746c.557-2.619-.401-3.929-2.875-3.929ZM306.577,625.461c-.034.163-.178.279-.344.279h-10.411c-.224,0-.391-.205-.345-.424l1.939-9.118c.035-.161.178-.277.343-.277h10.411c.224,0,.391.205.345.424l-1.939,9.115Z" fill="#eaa032"/>
  </g>
  <g>
    <path d="M251.601,621.893c-.915,0-2.175-.32-2.973-1.846l-5.763-11.211h6.801l2.939,5.855,5.17-5.855h7.215l-10.16,11.467c-.948,1.057-2.033,1.59-3.229,1.59Z"/>
    <path d="M248.872,610.122l3.438,6.847,6.046-6.847h3.778l-8.265,9.329c-.54.601-1.264,1.156-2.268,1.156-.955,0-1.495-.509-1.834-1.156l-4.795-9.329h3.901Z" fill="#32bbed"/>
    <polygon points="259.962 621.724 262.253 608.836 268.039 608.836 265.766 621.724 259.962 621.724"/>
    <path d="M264.688,620.438h-3.192l1.834-10.316h3.177l-1.819,10.316Z" fill="#32bbed"/>
    <path d="M263.02,621.724l10.16-11.467c.948-1.057,2.033-1.59,3.228-1.59.915,0,2.173.32,2.974,1.844l5.763,11.212h-22.126ZM275.723,616.501l-.319-.633-.559.633h.878Z"/>
    <path d="M271.042,620.438l2.406-2.652h2.575c.633,0,1.342,0,1.836.03-.216-.37-.54-1.002-.787-1.495l-1.372-2.73-6.044,6.847h-3.778l8.265-9.329c.54-.601,1.264-1.156,2.266-1.156.957,0,1.495.509,1.836,1.156l4.795,9.329h-11.997Z" fill="#32bbed"/>
  </g>
</svg>